<svg xmlns="http://www.w3.org/2000/svg" width="375" viewBox="0 0 375 375" height="375" version="1.0"><defs><clipPath id="a"><path d="M 7.96875 151.78125 L 82.96875 151.78125 L 82.96875 223 L 7.96875 223 Z M 7.96875 151.78125"/></clipPath><clipPath id="b"><path d="M 83 155.273438 L 150.46875 155.273438 L 150.46875 219.773438 L 83 219.773438 Z M 83 155.273438"/></clipPath><clipPath id="c"><path d="M 153.621094 155.273438 L 221 155.273438 L 221 219.773438 L 153.621094 219.773438 Z M 153.621094 155.273438"/></clipPath><clipPath id="d"><path d="M 289.128906 155.273438 L 356.628906 155.273438 L 356.628906 219.773438 L 289.128906 219.773438 Z M 289.128906 155.273438"/></clipPath><clipPath id="e"><path d="M 221.375 155.273438 L 288.878906 155.273438 L 288.878906 219.773438 L 221.375 219.773438 Z M 221.375 155.273438"/></clipPath></defs><g clip-path="url(#a)"><path fill="#F9A72B" d="M 45.46875 151.832031 L 57.058594 175.253906 L 82.972656 179.007812 L 64.222656 197.238281 L 68.648438 222.980469 L 45.46875 210.828125 L 22.292969 222.980469 L 26.71875 197.238281 L 7.96875 179.007812 L 33.882812 175.253906 L 45.46875 151.832031"/></g><g clip-path="url(#b)"><path d="M 136.417969 219.671875 C 136.144531 219.671875 135.867188 219.605469 135.617188 219.472656 L 116.710938 209.488281 L 97.808594 219.472656 C 97.226562 219.777344 96.523438 219.726562 95.992188 219.339844 C 95.460938 218.953125 95.191406 218.292969 95.304688 217.644531 L 98.914062 196.496094 L 83.621094 181.523438 C 83.152344 181.0625 82.980469 180.371094 83.183594 179.746094 C 83.386719 179.117188 83.925781 178.660156 84.578125 178.566406 L 105.710938 175.480469 L 115.164062 156.242188 C 115.457031 155.648438 116.054688 155.273438 116.710938 155.273438 C 117.367188 155.273438 117.96875 155.648438 118.257812 156.242188 L 127.710938 175.480469 L 148.847656 178.566406 C 149.496094 178.660156 150.035156 179.117188 150.238281 179.746094 C 150.441406 180.371094 150.273438 181.0625 149.800781 181.523438 L 134.507812 196.496094 L 138.117188 217.644531 C 138.230469 218.292969 137.964844 218.953125 137.433594 219.339844 C 137.132812 219.558594 136.777344 219.671875 136.417969 219.671875 Z M 116.710938 205.796875 C 116.988281 205.796875 117.261719 205.863281 117.515625 205.996094 L 134.128906 214.769531 L 130.953125 196.1875 C 130.859375 195.625 131.042969 195.050781 131.449219 194.652344 L 144.890625 181.492188 L 126.316406 178.78125 C 125.753906 178.699219 125.269531 178.34375 125.019531 177.832031 L 116.710938 160.925781 L 108.40625 177.832031 C 108.152344 178.34375 107.667969 178.699219 107.105469 178.78125 L 88.53125 181.492188 L 101.972656 194.652344 C 102.378906 195.050781 102.566406 195.625 102.46875 196.1875 L 99.296875 214.769531 L 115.910156 205.996094 C 116.160156 205.863281 116.4375 205.796875 116.710938 205.796875 Z M 116.710938 205.796875"/></g><g clip-path="url(#c)"><path d="M 207.070312 219.671875 C 206.796875 219.671875 206.519531 219.605469 206.269531 219.472656 L 187.363281 209.488281 L 168.460938 219.472656 C 167.878906 219.777344 167.175781 219.726562 166.644531 219.339844 C 166.113281 218.953125 165.847656 218.292969 165.957031 217.644531 L 169.566406 196.496094 L 154.273438 181.523438 C 153.804688 181.0625 153.632812 180.371094 153.835938 179.746094 C 154.039062 179.117188 154.578125 178.660156 155.230469 178.566406 L 176.363281 175.480469 L 185.816406 156.242188 C 186.109375 155.648438 186.707031 155.273438 187.363281 155.273438 C 188.019531 155.273438 188.621094 155.648438 188.910156 156.242188 L 198.363281 175.480469 L 219.5 178.566406 C 220.148438 178.660156 220.6875 179.117188 220.890625 179.746094 C 221.09375 180.371094 220.925781 181.0625 220.457031 181.523438 L 205.160156 196.496094 L 208.773438 217.644531 C 208.882812 218.292969 208.617188 218.953125 208.085938 219.339844 C 207.785156 219.558594 207.429688 219.671875 207.070312 219.671875 Z M 187.363281 205.796875 C 187.640625 205.796875 187.914062 205.863281 188.167969 205.996094 L 204.78125 214.769531 L 201.609375 196.1875 C 201.511719 195.625 201.695312 195.050781 202.105469 194.652344 L 215.542969 181.492188 L 196.96875 178.78125 C 196.40625 178.699219 195.921875 178.34375 195.671875 177.832031 L 187.363281 160.925781 L 179.058594 177.832031 C 178.804688 178.34375 178.320312 178.699219 177.757812 178.78125 L 159.183594 181.492188 L 172.625 194.652344 C 173.03125 195.050781 173.21875 195.625 173.121094 196.1875 L 169.949219 214.769531 L 186.5625 205.996094 C 186.8125 205.863281 187.089844 205.796875 187.363281 205.796875 Z M 187.363281 205.796875"/></g><g clip-path="url(#d)"><path d="M 342.578125 219.671875 C 342.304688 219.671875 342.027344 219.605469 341.777344 219.472656 L 322.871094 209.488281 L 303.96875 219.472656 C 303.386719 219.777344 302.683594 219.726562 302.152344 219.339844 C 301.621094 218.953125 301.355469 218.292969 301.464844 217.644531 L 305.074219 196.496094 L 289.78125 181.523438 C 289.3125 181.0625 289.140625 180.371094 289.34375 179.746094 C 289.546875 179.117188 290.085938 178.660156 290.738281 178.566406 L 311.871094 175.480469 L 321.324219 156.242188 C 321.617188 155.648438 322.214844 155.273438 322.871094 155.273438 C 323.527344 155.273438 324.128906 155.648438 324.417969 156.242188 L 333.871094 175.480469 L 355.007812 178.566406 C 355.65625 178.660156 356.195312 179.117188 356.398438 179.746094 C 356.601562 180.371094 356.433594 181.0625 355.964844 181.523438 L 340.667969 196.496094 L 344.28125 217.644531 C 344.390625 218.292969 344.125 218.953125 343.59375 219.339844 C 343.292969 219.558594 342.9375 219.671875 342.578125 219.671875 Z M 322.871094 205.796875 C 323.148438 205.796875 323.421875 205.863281 323.675781 205.996094 L 340.289062 214.769531 L 337.117188 196.1875 C 337.019531 195.625 337.203125 195.050781 337.613281 194.652344 L 351.050781 181.492188 L 332.476562 178.78125 C 331.914062 178.699219 331.429688 178.34375 331.179688 177.832031 L 322.871094 160.925781 L 314.566406 177.832031 C 314.3125 178.34375 313.828125 178.699219 313.265625 178.78125 L 294.691406 181.492188 L 308.132812 194.652344 C 308.539062 195.050781 308.726562 195.625 308.628906 196.1875 L 305.457031 214.769531 L 322.070312 205.996094 C 322.320312 205.863281 322.597656 205.796875 322.871094 205.796875 Z M 322.871094 205.796875"/></g><g clip-path="url(#e)"><path d="M 274.824219 219.671875 C 274.550781 219.671875 274.273438 219.605469 274.023438 219.472656 L 255.117188 209.488281 L 236.214844 219.472656 C 235.632812 219.777344 234.929688 219.726562 234.398438 219.339844 C 233.867188 218.953125 233.601562 218.292969 233.710938 217.644531 L 237.320312 196.496094 L 222.027344 181.523438 C 221.558594 181.0625 221.386719 180.371094 221.589844 179.746094 C 221.792969 179.117188 222.332031 178.660156 222.984375 178.566406 L 244.117188 175.480469 L 253.570312 156.242188 C 253.863281 155.648438 254.460938 155.273438 255.117188 155.273438 C 255.773438 155.273438 256.375 155.648438 256.664062 156.242188 L 266.117188 175.480469 L 287.253906 178.566406 C 287.902344 178.660156 288.441406 179.117188 288.644531 179.746094 C 288.847656 180.371094 288.679688 181.0625 288.210938 181.523438 L 272.914062 196.496094 L 276.527344 217.644531 C 276.636719 218.292969 276.371094 218.953125 275.839844 219.339844 C 275.539062 219.558594 275.183594 219.671875 274.824219 219.671875 Z M 255.117188 205.796875 C 255.394531 205.796875 255.667969 205.863281 255.921875 205.996094 L 272.535156 214.769531 L 269.363281 196.1875 C 269.265625 195.625 269.449219 195.050781 269.859375 194.652344 L 283.296875 181.492188 L 264.722656 178.78125 C 264.160156 178.699219 263.675781 178.34375 263.425781 177.832031 L 255.117188 160.925781 L 246.8125 177.832031 C 246.558594 178.34375 246.074219 178.699219 245.511719 178.78125 L 226.9375 181.492188 L 240.378906 194.652344 C 240.785156 195.050781 240.972656 195.625 240.875 196.1875 L 237.703125 214.769531 L 254.316406 205.996094 C 254.566406 205.863281 254.84375 205.796875 255.117188 205.796875 Z M 255.117188 205.796875"/></g></svg>