<svg xmlns="http://www.w3.org/2000/svg" width="375" viewBox="0 0 375 375" height="375" version="1.0"><defs><clipPath id="a"><path d="M 7.96875 151.78125 L 82.96875 151.78125 L 82.96875 223 L 7.96875 223 Z M 7.96875 151.78125"/></clipPath><clipPath id="b"><path d="M 289.128906 155.273438 L 356.628906 155.273438 L 356.628906 219.773438 L 289.128906 219.773438 Z M 289.128906 155.273438"/></clipPath><clipPath id="c"><path d="M 221.375 155.273438 L 288.878906 155.273438 L 288.878906 219.773438 L 221.375 219.773438 Z M 221.375 155.273438"/></clipPath><clipPath id="d"><path d="M 78.621094 151.78125 L 153.621094 151.78125 L 153.621094 223 L 78.621094 223 Z M 78.621094 151.78125"/></clipPath><clipPath id="e"><path d="M 150 151.78125 L 225 151.78125 L 225 223 L 150 223 Z M 150 151.78125"/></clipPath></defs><g clip-path="url(#a)"><path fill="#F9A72B" d="M 45.46875 151.832031 L 57.058594 175.253906 L 82.972656 179.007812 L 64.222656 197.238281 L 68.648438 222.980469 L 45.46875 210.828125 L 22.292969 222.980469 L 26.71875 197.238281 L 7.96875 179.007812 L 33.882812 175.253906 L 45.46875 151.832031"/></g><g clip-path="url(#b)"><path d="M 342.578125 219.671875 C 342.304688 219.671875 342.027344 219.605469 341.777344 219.472656 L 322.871094 209.488281 L 303.96875 219.472656 C 303.386719 219.777344 302.683594 219.726562 302.152344 219.339844 C 301.621094 218.953125 301.355469 218.292969 301.464844 217.644531 L 305.074219 196.496094 L 289.78125 181.523438 C 289.3125 181.0625 289.140625 180.371094 289.34375 179.746094 C 289.546875 179.117188 290.085938 178.660156 290.738281 178.566406 L 311.871094 175.480469 L 321.324219 156.242188 C 321.617188 155.648438 322.214844 155.273438 322.871094 155.273438 C 323.527344 155.273438 324.128906 155.648438 324.417969 156.242188 L 333.871094 175.480469 L 355.007812 178.566406 C 355.65625 178.660156 356.195312 179.117188 356.398438 179.746094 C 356.601562 180.371094 356.433594 181.0625 355.964844 181.523438 L 340.667969 196.496094 L 344.28125 217.644531 C 344.390625 218.292969 344.125 218.953125 343.59375 219.339844 C 343.292969 219.558594 342.9375 219.671875 342.578125 219.671875 Z M 322.871094 205.796875 C 323.148438 205.796875 323.421875 205.863281 323.675781 205.996094 L 340.289062 214.769531 L 337.117188 196.1875 C 337.019531 195.625 337.203125 195.050781 337.613281 194.652344 L 351.050781 181.492188 L 332.476562 178.78125 C 331.914062 178.699219 331.429688 178.34375 331.179688 177.832031 L 322.871094 160.925781 L 314.566406 177.832031 C 314.3125 178.34375 313.828125 178.699219 313.265625 178.78125 L 294.691406 181.492188 L 308.132812 194.652344 C 308.539062 195.050781 308.726562 195.625 308.628906 196.1875 L 305.457031 214.769531 L 322.070312 205.996094 C 322.320312 205.863281 322.597656 205.796875 322.871094 205.796875 Z M 322.871094 205.796875"/></g><g clip-path="url(#c)"><path d="M 274.824219 219.671875 C 274.550781 219.671875 274.273438 219.605469 274.023438 219.472656 L 255.117188 209.488281 L 236.214844 219.472656 C 235.632812 219.777344 234.929688 219.726562 234.398438 219.339844 C 233.867188 218.953125 233.601562 218.292969 233.710938 217.644531 L 237.320312 196.496094 L 222.027344 181.523438 C 221.558594 181.0625 221.386719 180.371094 221.589844 179.746094 C 221.792969 179.117188 222.332031 178.660156 222.984375 178.566406 L 244.117188 175.480469 L 253.570312 156.242188 C 253.863281 155.648438 254.460938 155.273438 255.117188 155.273438 C 255.773438 155.273438 256.375 155.648438 256.664062 156.242188 L 266.117188 175.480469 L 287.253906 178.566406 C 287.902344 178.660156 288.441406 179.117188 288.644531 179.746094 C 288.847656 180.371094 288.679688 181.0625 288.210938 181.523438 L 272.914062 196.496094 L 276.527344 217.644531 C 276.636719 218.292969 276.371094 218.953125 275.839844 219.339844 C 275.539062 219.558594 275.183594 219.671875 274.824219 219.671875 Z M 255.117188 205.796875 C 255.394531 205.796875 255.667969 205.863281 255.921875 205.996094 L 272.535156 214.769531 L 269.363281 196.1875 C 269.265625 195.625 269.449219 195.050781 269.859375 194.652344 L 283.296875 181.492188 L 264.722656 178.78125 C 264.160156 178.699219 263.675781 178.34375 263.425781 177.832031 L 255.117188 160.925781 L 246.8125 177.832031 C 246.558594 178.34375 246.074219 178.699219 245.511719 178.78125 L 226.9375 181.492188 L 240.378906 194.652344 C 240.785156 195.050781 240.972656 195.625 240.875 196.1875 L 237.703125 214.769531 L 254.316406 205.996094 C 254.566406 205.863281 254.84375 205.796875 255.117188 205.796875 Z M 255.117188 205.796875"/></g><g clip-path="url(#d)"><path fill="#F9A72B" d="M 116.125 151.832031 L 127.710938 175.253906 L 153.625 179.007812 L 134.875 197.238281 L 139.300781 222.980469 L 116.125 210.828125 L 92.945312 222.980469 L 97.371094 197.238281 L 78.621094 179.007812 L 104.535156 175.253906 L 116.125 151.832031"/></g><g clip-path="url(#e)"><path fill="#F9A72B" d="M 187.5 151.832031 L 199.089844 175.253906 L 225.003906 179.007812 L 206.25 197.238281 L 210.679688 222.980469 L 187.5 210.828125 L 164.324219 222.980469 L 168.75 197.238281 L 149.996094 179.007812 L 175.910156 175.253906 L 187.5 151.832031"/></g></svg>