<svg xmlns="http://www.w3.org/2000/svg" width="375" viewBox="0 0 375 375" height="375" version="1.0"><defs><clipPath id="a"><path d="M 7.96875 151.78125 L 82.96875 151.78125 L 82.96875 223 L 7.96875 223 Z M 7.96875 151.78125"/></clipPath><clipPath id="b"><path d="M 300 155.273438 L 367.5 155.273438 L 367.5 219.773438 L 300 219.773438 Z M 300 155.273438"/></clipPath><clipPath id="c"><path d="M 78.621094 151.78125 L 153.621094 151.78125 L 153.621094 223 L 78.621094 223 Z M 78.621094 151.78125"/></clipPath><clipPath id="d"><path d="M 150 151.78125 L 225 151.78125 L 225 223 L 150 223 Z M 150 151.78125"/></clipPath><clipPath id="e"><path d="M 225 151.78125 L 300 151.78125 L 300 223 L 225 223 Z M 225 151.78125"/></clipPath></defs><g clip-path="url(#a)"><path fill="#F9A72B" d="M 45.46875 151.832031 L 57.058594 175.253906 L 82.972656 179.007812 L 64.222656 197.238281 L 68.648438 222.980469 L 45.46875 210.828125 L 22.292969 222.980469 L 26.71875 197.238281 L 7.96875 179.007812 L 33.882812 175.253906 L 45.46875 151.832031"/></g><g clip-path="url(#b)"><path d="M 353.449219 219.671875 C 353.171875 219.671875 352.898438 219.605469 352.644531 219.472656 L 333.742188 209.488281 L 314.835938 219.472656 C 314.257812 219.777344 313.550781 219.726562 313.019531 219.339844 C 312.488281 218.949219 312.222656 218.292969 312.335938 217.644531 L 315.945312 196.496094 L 300.652344 181.523438 C 300.179688 181.0625 300.011719 180.371094 300.214844 179.746094 C 300.417969 179.117188 300.957031 178.660156 301.605469 178.566406 L 322.742188 175.480469 L 332.195312 156.242188 C 332.484375 155.648438 333.085938 155.273438 333.742188 155.273438 C 334.398438 155.273438 334.996094 155.648438 335.289062 156.242188 L 344.742188 175.480469 L 365.875 178.566406 C 366.527344 178.660156 367.066406 179.117188 367.269531 179.746094 C 367.472656 180.371094 367.300781 181.0625 366.832031 181.523438 L 351.539062 196.496094 L 355.148438 217.644531 C 355.261719 218.292969 354.992188 218.949219 354.460938 219.339844 C 354.160156 219.558594 353.804688 219.671875 353.449219 219.671875 Z M 333.742188 205.796875 C 334.015625 205.796875 334.292969 205.863281 334.542969 205.996094 L 351.15625 214.769531 L 347.984375 196.1875 C 347.886719 195.625 348.074219 195.050781 348.480469 194.652344 L 361.921875 181.492188 L 343.347656 178.78125 C 342.785156 178.699219 342.300781 178.34375 342.046875 177.832031 L 333.742188 160.925781 L 325.433594 177.832031 C 325.183594 178.34375 324.699219 178.699219 324.136719 178.78125 L 305.5625 181.492188 L 319.003906 194.652344 C 319.410156 195.050781 319.59375 195.625 319.5 196.1875 L 316.324219 214.769531 L 332.9375 205.996094 C 333.191406 205.863281 333.464844 205.796875 333.742188 205.796875 Z M 333.742188 205.796875"/></g><g clip-path="url(#c)"><path fill="#F9A72B" d="M 116.125 151.832031 L 127.710938 175.253906 L 153.625 179.007812 L 134.875 197.238281 L 139.300781 222.980469 L 116.125 210.828125 L 92.945312 222.980469 L 97.371094 197.238281 L 78.621094 179.007812 L 104.535156 175.253906 L 116.125 151.832031"/></g><g clip-path="url(#d)"><path fill="#F9A72B" d="M 187.5 151.832031 L 199.089844 175.253906 L 225.003906 179.007812 L 206.25 197.238281 L 210.679688 222.980469 L 187.5 210.828125 L 164.324219 222.980469 L 168.75 197.238281 L 149.996094 179.007812 L 175.910156 175.253906 L 187.5 151.832031"/></g><g clip-path="url(#e)"><path fill="#F9A72B" d="M 262.5 151.832031 L 274.089844 175.253906 L 300.003906 179.007812 L 281.25 197.238281 L 285.679688 222.980469 L 262.5 210.828125 L 239.324219 222.980469 L 243.75 197.238281 L 224.996094 179.007812 L 250.910156 175.253906 L 262.5 151.832031"/></g></svg>