<svg xmlns="http://www.w3.org/2000/svg" width="375" viewBox="0 0 375 375" height="375" version="1.0"><defs><clipPath id="a"><path d="M 7.96875 151.78125 L 82.96875 151.78125 L 82.96875 223 L 7.96875 223 Z M 7.96875 151.78125"/></clipPath><clipPath id="b"><path d="M 78.621094 151.78125 L 153.621094 151.78125 L 153.621094 223 L 78.621094 223 Z M 78.621094 151.78125"/></clipPath><clipPath id="c"><path d="M 150 151.78125 L 225 151.78125 L 225 223 L 150 223 Z M 150 151.78125"/></clipPath><clipPath id="d"><path d="M 225 151.78125 L 300 151.78125 L 300 223 L 225 223 Z M 225 151.78125"/></clipPath><clipPath id="e"><path d="M 300 151.78125 L 375 151.78125 L 375 223 L 300 223 Z M 300 151.78125"/></clipPath></defs><g clip-path="url(#a)"><path fill="#F9A72B" d="M 45.46875 151.832031 L 57.058594 175.253906 L 82.972656 179.007812 L 64.222656 197.238281 L 68.648438 222.980469 L 45.46875 210.828125 L 22.292969 222.980469 L 26.71875 197.238281 L 7.96875 179.007812 L 33.882812 175.253906 L 45.46875 151.832031"/></g><g clip-path="url(#b)"><path fill="#F9A72B" d="M 116.125 151.832031 L 127.710938 175.253906 L 153.625 179.007812 L 134.875 197.238281 L 139.300781 222.980469 L 116.125 210.828125 L 92.945312 222.980469 L 97.371094 197.238281 L 78.621094 179.007812 L 104.535156 175.253906 L 116.125 151.832031"/></g><g clip-path="url(#c)"><path fill="#F9A72B" d="M 187.5 151.832031 L 199.089844 175.253906 L 225.003906 179.007812 L 206.25 197.238281 L 210.679688 222.980469 L 187.5 210.828125 L 164.324219 222.980469 L 168.75 197.238281 L 149.996094 179.007812 L 175.910156 175.253906 L 187.5 151.832031"/></g><g clip-path="url(#d)"><path fill="#F9A72B" d="M 262.5 151.832031 L 274.089844 175.253906 L 300.003906 179.007812 L 281.25 197.238281 L 285.679688 222.980469 L 262.5 210.828125 L 239.324219 222.980469 L 243.75 197.238281 L 224.996094 179.007812 L 250.910156 175.253906 L 262.5 151.832031"/></g><g clip-path="url(#e)"><path fill="#F9A72B" d="M 337.5 151.832031 L 349.089844 175.253906 L 375.003906 179.007812 L 356.25 197.238281 L 360.679688 222.980469 L 337.5 210.828125 L 314.324219 222.980469 L 318.75 197.238281 L 299.996094 179.007812 L 325.910156 175.253906 L 337.5 151.832031"/></g></svg>