<svg xmlns="http://www.w3.org/2000/svg" width="1440" viewBox="0 0 1440 810" height="810" version="1.0"><path stroke-linecap="round" transform="matrix(3.75163 0 0 3.75 81 257.292)" fill="none" d="M 0.499783 0.000229572 L 129.046073 0.000229572" stroke="#D9D9D9"/><path stroke-linecap="round" transform="matrix(3.75188 .02896 -.02895 3.74989 81.01 257.292)" fill="none" d="M 0.500138 -0.000508454 L 64.268204 -0.000337787" stroke="#FF5757"/><path stroke-linecap="round" transform="matrix(3.75163 0 0 3.75 872.45 257.292)" fill="none" d="M 0.500398 0.000229572 L 129.046688 0.000229572" stroke="#D9D9D9"/><path stroke-linecap="round" transform="matrix(3.74354 .06314 -.06324 3.74947 872.461 257.292)" fill="none" d="M 0.499788 0.000147657 L 29.14811 0.0000677658" stroke="#FF5757"/><g><g><g><path d="M 15.25 -16.84375 L 13 0 L 9.953125 0 L 10.96875 -7.515625 L 4.25 -7.515625 L 3.265625 0 L 0.25 0 L 2.328125 -15.4375 L 2.1875 -16.84375 L 5.5 -16.84375 L 4.546875 -9.796875 L 11.265625 -9.796875 L 12.21875 -16.84375 Z M 15.25 -16.84375" transform="translate(92.779 213.105)"/></g></g></g><g><g><g><path d="M 13.0625 -16.84375 L 12.734375 -14.5625 L 8.25 -14.5625 L 6.296875 0 L 3.171875 0 L 5.109375 -14.5625 L 0.6875 -14.5625 L 0.984375 -16.84375 Z M 13.0625 -16.84375" transform="translate(108.736 213.105)"/></g></g></g><g><g><g><path d="M 18.84375 -16.84375 L 16.578125 0 L 13.5625 0 L 15.09375 -11.40625 C 15.125 -11.625 15.179688 -11.921875 15.265625 -12.296875 C 15.347656 -12.679688 15.394531 -12.9375 15.40625 -13.0625 C 15.101562 -12.320312 14.859375 -11.769531 14.671875 -11.40625 L 9.25 0.015625 L 7.21875 0.015625 L 4.71875 -11.40625 C 4.53125 -12.25 4.421875 -12.800781 4.390625 -13.0625 C 4.347656 -12.125 4.316406 -11.570312 4.296875 -11.40625 L 2.765625 0 L 0.25 0 L 2.296875 -15.4375 L 2.1875 -16.84375 L 6.59375 -16.84375 L 8.71875 -7.15625 C 8.820312 -6.707031 8.90625 -5.78125 8.96875 -4.375 C 9.320312 -5.5625 9.644531 -6.457031 9.9375 -7.0625 L 14.53125 -16.84375 Z M 18.84375 -16.84375" transform="translate(121.22 213.105)"/></g></g></g><g><g><g><path d="M 9.84375 -2.28125 L 9.546875 0 L 0.25 0 L 2.328125 -15.4375 L 2.203125 -16.84375 L 5.515625 -16.84375 L 3.59375 -2.28125 Z M 9.84375 -2.28125" transform="translate(140.764 213.105)"/></g></g></g><g><g><g><path d="M 14.3125 -15.53125 L 12.4375 -13.40625 C 12.101562 -13.882812 11.625 -14.253906 11 -14.515625 C 10.382812 -14.785156 9.769531 -14.921875 9.15625 -14.921875 C 8.238281 -14.921875 7.414062 -14.679688 6.6875 -14.203125 C 5.957031 -13.734375 5.378906 -13.117188 4.953125 -12.359375 C 4.535156 -11.597656 4.21875 -10.785156 4 -9.921875 C 3.789062 -9.066406 3.6875 -8.210938 3.6875 -7.359375 C 3.6875 -6.484375 3.789062 -5.65625 4 -4.875 C 4.21875 -4.09375 4.625 -3.398438 5.21875 -2.796875 C 5.820312 -2.191406 6.566406 -1.890625 7.453125 -1.890625 C 8.796875 -1.890625 10.113281 -2.460938 11.40625 -3.609375 L 12.484375 -1.421875 C 10.648438 -0.285156 8.816406 0.28125 6.984375 0.28125 C 4.859375 0.28125 3.226562 -0.347656 2.09375 -1.609375 C 0.957031 -2.867188 0.390625 -4.578125 0.390625 -6.734375 C 0.390625 -8.066406 0.59375 -9.347656 1 -10.578125 C 1.40625 -11.816406 1.972656 -12.925781 2.703125 -13.90625 C 3.441406 -14.894531 4.382812 -15.679688 5.53125 -16.265625 C 6.6875 -16.859375 7.957031 -17.15625 9.34375 -17.15625 C 10.226562 -17.15625 11.144531 -17.015625 12.09375 -16.734375 C 13.050781 -16.460938 13.789062 -16.0625 14.3125 -15.53125 Z M 14.3125 -15.53125" transform="translate(899.568 213.105)"/></g></g></g><g><g><g><path d="M 8.875 -11.453125 L 8.125 -8.671875 L 4.03125 -8.671875 L 3.546875 -7.515625 C 6.109375 -6.015625 7.390625 -4.140625 7.390625 -1.890625 C 7.390625 -0.929688 7.164062 -0.046875 6.71875 0.765625 C 6.269531 1.578125 5.6875 2.25 4.96875 2.78125 C 4.25 3.320312 3.472656 3.753906 2.640625 4.078125 C 1.816406 4.410156 0.96875 4.640625 0.09375 4.765625 L -0.390625 3.328125 C 0.972656 2.898438 2.125 2.269531 3.0625 1.4375 C 4.007812 0.601562 4.484375 -0.460938 4.484375 -1.765625 C 4.484375 -2.691406 4.078125 -3.5625 3.265625 -4.375 C 2.460938 -5.195312 1.570312 -5.832031 0.59375 -6.28125 L 2.828125 -11.453125 Z M 8.875 -11.453125" transform="translate(525.816 240.005)"/></g></g></g><g><g><g><path d="M 12.390625 -6.921875 C 12.390625 -5.953125 12.265625 -5.050781 12.015625 -4.21875 C 11.773438 -3.382812 11.398438 -2.617188 10.890625 -1.921875 C 10.390625 -1.234375 9.707031 -0.691406 8.84375 -0.296875 C 7.976562 0.0859375 6.976562 0.28125 5.84375 0.28125 C 4.257812 0.28125 3.035156 -0.140625 2.171875 -0.984375 C 1.304688 -1.828125 0.875 -3.007812 0.875 -4.53125 C 0.875 -6.78125 1.46875 -8.539062 2.65625 -9.8125 C 3.84375 -11.09375 5.429688 -11.734375 7.421875 -11.734375 C 9.035156 -11.734375 10.265625 -11.3125 11.109375 -10.46875 C 11.960938 -9.632812 12.390625 -8.453125 12.390625 -6.921875 Z M 6.09375 -1.59375 C 6.738281 -1.59375 7.296875 -1.753906 7.765625 -2.078125 C 8.242188 -2.410156 8.601562 -2.851562 8.84375 -3.40625 C 9.09375 -3.96875 9.269531 -4.539062 9.375 -5.125 C 9.488281 -5.707031 9.546875 -6.320312 9.546875 -6.96875 C 9.546875 -8.894531 8.753906 -9.859375 7.171875 -9.859375 C 6.515625 -9.859375 5.941406 -9.679688 5.453125 -9.328125 C 4.972656 -8.984375 4.613281 -8.519531 4.375 -7.9375 C 4.144531 -7.351562 3.972656 -6.765625 3.859375 -6.171875 C 3.753906 -5.585938 3.703125 -4.976562 3.703125 -4.34375 C 3.703125 -2.507812 4.5 -1.59375 6.09375 -1.59375 Z M 6.09375 -1.59375" transform="translate(534.83 240.005)"/></g></g></g><g><g><g><path d="M 17.578125 -5.640625 C 17.578125 -4.097656 17.179688 -2.753906 16.390625 -1.609375 C 15.597656 -0.472656 14.472656 0.09375 13.015625 0.09375 C 11.910156 0.09375 11.082031 -0.242188 10.53125 -0.921875 C 9.976562 -1.597656 9.703125 -2.492188 9.703125 -3.609375 C 9.703125 -5.140625 10.097656 -6.472656 10.890625 -7.609375 C 11.679688 -8.742188 12.804688 -9.3125 14.265625 -9.3125 C 15.367188 -9.3125 16.195312 -8.976562 16.75 -8.3125 C 17.300781 -7.644531 17.578125 -6.753906 17.578125 -5.640625 Z M 14.671875 -16.078125 L 4.921875 0.28125 L 3.375 0.28125 L 12.421875 -14.828125 L 8.125 -14.828125 C 8.425781 -14.265625 8.578125 -13.566406 8.578125 -12.734375 C 8.578125 -11.203125 8.179688 -9.859375 7.390625 -8.703125 C 6.597656 -7.554688 5.46875 -6.984375 4 -6.984375 C 2.914062 -6.984375 2.09375 -7.320312 1.53125 -8 C 0.96875 -8.675781 0.6875 -9.570312 0.6875 -10.6875 C 0.6875 -12.226562 1.082031 -13.566406 1.875 -14.703125 C 2.664062 -15.835938 3.796875 -16.40625 5.265625 -16.40625 C 5.878906 -16.40625 6.410156 -16.296875 6.859375 -16.078125 Z M 15.203125 -5.6875 C 15.203125 -6.894531 14.8125 -7.5 14.03125 -7.5 C 13.644531 -7.5 13.316406 -7.351562 13.046875 -7.0625 C 12.785156 -6.769531 12.582031 -6.398438 12.4375 -5.953125 C 12.300781 -5.515625 12.207031 -5.09375 12.15625 -4.6875 C 12.101562 -4.289062 12.078125 -3.914062 12.078125 -3.5625 C 12.078125 -2.332031 12.46875 -1.71875 13.25 -1.71875 C 13.632812 -1.71875 13.957031 -1.863281 14.21875 -2.15625 C 14.488281 -2.445312 14.691406 -2.816406 14.828125 -3.265625 C 14.972656 -3.710938 15.070312 -4.140625 15.125 -4.546875 C 15.175781 -4.953125 15.203125 -5.332031 15.203125 -5.6875 Z M 6.203125 -12.765625 C 6.203125 -13.972656 5.804688 -14.578125 5.015625 -14.578125 C 4.628906 -14.578125 4.300781 -14.4375 4.03125 -14.15625 C 3.769531 -13.875 3.570312 -13.503906 3.4375 -13.046875 C 3.3125 -12.597656 3.21875 -12.171875 3.15625 -11.765625 C 3.101562 -11.367188 3.078125 -11 3.078125 -10.65625 C 3.078125 -9.425781 3.46875 -8.8125 4.25 -8.8125 C 4.632812 -8.8125 4.960938 -8.957031 5.234375 -9.25 C 5.503906 -9.539062 5.707031 -9.90625 5.84375 -10.34375 C 5.976562 -10.789062 6.070312 -11.21875 6.125 -11.625 C 6.175781 -12.03125 6.203125 -12.410156 6.203125 -12.765625 Z M 6.203125 -12.765625" transform="translate(548.579 240.005)"/></g></g></g><g><g><g><path d="M 9.9375 -2.28125 L 9.015625 0 L 0.296875 0 L 0.296875 -1.234375 C 1.003906 -1.910156 2.023438 -2.945312 3.359375 -4.34375 C 4.703125 -5.738281 5.503906 -6.566406 5.765625 -6.828125 C 6.378906 -7.441406 6.6875 -8.023438 6.6875 -8.578125 C 6.6875 -8.910156 6.578125 -9.175781 6.359375 -9.375 C 6.148438 -9.582031 5.878906 -9.6875 5.546875 -9.6875 C 4.703125 -9.6875 3.726562 -9.179688 2.625 -8.171875 L 1.5 -9.640625 C 3.195312 -11.066406 4.890625 -11.78125 6.578125 -11.78125 C 7.492188 -11.78125 8.273438 -11.546875 8.921875 -11.078125 C 9.566406 -10.617188 9.890625 -9.953125 9.890625 -9.078125 C 9.890625 -7.953125 9.367188 -6.890625 8.328125 -5.890625 C 7.972656 -5.546875 6.597656 -4.34375 4.203125 -2.28125 Z M 9.9375 -2.28125" transform="translate(1217.627 240.005)"/></g></g></g><g><g><g><path d="M 8.875 -11.453125 L 8.125 -8.671875 L 4.03125 -8.671875 L 3.546875 -7.515625 C 6.109375 -6.015625 7.390625 -4.140625 7.390625 -1.890625 C 7.390625 -0.929688 7.164062 -0.046875 6.71875 0.765625 C 6.269531 1.578125 5.6875 2.25 4.96875 2.78125 C 4.25 3.320312 3.472656 3.753906 2.640625 4.078125 C 1.816406 4.410156 0.96875 4.640625 0.09375 4.765625 L -0.390625 3.328125 C 0.972656 2.898438 2.125 2.269531 3.0625 1.4375 C 4.007812 0.601562 4.484375 -0.460938 4.484375 -1.765625 C 4.484375 -2.691406 4.078125 -3.5625 3.265625 -4.375 C 2.460938 -5.195312 1.570312 -5.832031 0.59375 -6.28125 L 2.828125 -11.453125 Z M 8.875 -11.453125" transform="translate(1228.779 240.005)"/></g></g></g><g><g><g><path d="M 17.578125 -5.640625 C 17.578125 -4.097656 17.179688 -2.753906 16.390625 -1.609375 C 15.597656 -0.472656 14.472656 0.09375 13.015625 0.09375 C 11.910156 0.09375 11.082031 -0.242188 10.53125 -0.921875 C 9.976562 -1.597656 9.703125 -2.492188 9.703125 -3.609375 C 9.703125 -5.140625 10.097656 -6.472656 10.890625 -7.609375 C 11.679688 -8.742188 12.804688 -9.3125 14.265625 -9.3125 C 15.367188 -9.3125 16.195312 -8.976562 16.75 -8.3125 C 17.300781 -7.644531 17.578125 -6.753906 17.578125 -5.640625 Z M 14.671875 -16.078125 L 4.921875 0.28125 L 3.375 0.28125 L 12.421875 -14.828125 L 8.125 -14.828125 C 8.425781 -14.265625 8.578125 -13.566406 8.578125 -12.734375 C 8.578125 -11.203125 8.179688 -9.859375 7.390625 -8.703125 C 6.597656 -7.554688 5.46875 -6.984375 4 -6.984375 C 2.914062 -6.984375 2.09375 -7.320312 1.53125 -8 C 0.96875 -8.675781 0.6875 -9.570312 0.6875 -10.6875 C 0.6875 -12.226562 1.082031 -13.566406 1.875 -14.703125 C 2.664062 -15.835938 3.796875 -16.40625 5.265625 -16.40625 C 5.878906 -16.40625 6.410156 -16.296875 6.859375 -16.078125 Z M 15.203125 -5.6875 C 15.203125 -6.894531 14.8125 -7.5 14.03125 -7.5 C 13.644531 -7.5 13.316406 -7.351562 13.046875 -7.0625 C 12.785156 -6.769531 12.582031 -6.398438 12.4375 -5.953125 C 12.300781 -5.515625 12.207031 -5.09375 12.15625 -4.6875 C 12.101562 -4.289062 12.078125 -3.914062 12.078125 -3.5625 C 12.078125 -2.332031 12.46875 -1.71875 13.25 -1.71875 C 13.632812 -1.71875 13.957031 -1.863281 14.21875 -2.15625 C 14.488281 -2.445312 14.691406 -2.816406 14.828125 -3.265625 C 14.972656 -3.710938 15.070312 -4.140625 15.125 -4.546875 C 15.175781 -4.953125 15.203125 -5.332031 15.203125 -5.6875 Z M 6.203125 -12.765625 C 6.203125 -13.972656 5.804688 -14.578125 5.015625 -14.578125 C 4.628906 -14.578125 4.300781 -14.4375 4.03125 -14.15625 C 3.769531 -13.875 3.570312 -13.503906 3.4375 -13.046875 C 3.3125 -12.597656 3.21875 -12.171875 3.15625 -11.765625 C 3.101562 -11.367188 3.078125 -11 3.078125 -10.65625 C 3.078125 -9.425781 3.46875 -8.8125 4.25 -8.8125 C 4.632812 -8.8125 4.960938 -8.957031 5.234375 -9.25 C 5.503906 -9.539062 5.707031 -9.90625 5.84375 -10.34375 C 5.976562 -10.789062 6.070312 -11.21875 6.125 -11.625 C 6.175781 -12.03125 6.203125 -12.410156 6.203125 -12.765625 Z M 6.203125 -12.765625" transform="translate(1237.792 240.005)"/></g></g></g><path stroke-linecap="round" transform="matrix(3.75163 0 0 3.75 70.728 436.069)" fill="none" d="M 0.50044 0.000431583 L 129.04673 0.000431583" stroke="#D9D9D9"/><path stroke-linecap="round" transform="matrix(3.75188 .02896 -.02895 3.74989 70.738 436.069)" fill="none" d="M 0.499753 -0.000303464 L 64.26886 -0.000140838" stroke="#FF5757"/><g><g><g><path d="M 14.3125 -15.53125 L 12.4375 -13.40625 C 12.101562 -13.882812 11.625 -14.253906 11 -14.515625 C 10.382812 -14.785156 9.769531 -14.921875 9.15625 -14.921875 C 8.238281 -14.921875 7.414062 -14.679688 6.6875 -14.203125 C 5.957031 -13.734375 5.378906 -13.117188 4.953125 -12.359375 C 4.535156 -11.597656 4.21875 -10.785156 4 -9.921875 C 3.789062 -9.066406 3.6875 -8.210938 3.6875 -7.359375 C 3.6875 -6.484375 3.789062 -5.65625 4 -4.875 C 4.21875 -4.09375 4.625 -3.398438 5.21875 -2.796875 C 5.820312 -2.191406 6.566406 -1.890625 7.453125 -1.890625 C 8.796875 -1.890625 10.113281 -2.460938 11.40625 -3.609375 L 12.484375 -1.421875 C 10.648438 -0.285156 8.816406 0.28125 6.984375 0.28125 C 4.859375 0.28125 3.226562 -0.347656 2.09375 -1.609375 C 0.957031 -2.867188 0.390625 -4.578125 0.390625 -6.734375 C 0.390625 -8.066406 0.59375 -9.347656 1 -10.578125 C 1.40625 -11.816406 1.972656 -12.925781 2.703125 -13.90625 C 3.441406 -14.894531 4.382812 -15.679688 5.53125 -16.265625 C 6.6875 -16.859375 7.957031 -17.15625 9.34375 -17.15625 C 10.226562 -17.15625 11.144531 -17.015625 12.09375 -16.734375 C 13.050781 -16.460938 13.789062 -16.0625 14.3125 -15.53125 Z M 14.3125 -15.53125" transform="translate(93.194 391.881)"/></g></g></g><g><g><g><path d="M 11.703125 -15.734375 L 10.34375 -13.609375 C 10.007812 -13.984375 9.507812 -14.289062 8.84375 -14.53125 C 8.1875 -14.78125 7.59375 -14.90625 7.0625 -14.90625 C 6.375 -14.90625 5.78125 -14.703125 5.28125 -14.296875 C 4.789062 -13.890625 4.546875 -13.34375 4.546875 -12.65625 C 4.546875 -12.207031 4.695312 -11.796875 5 -11.421875 C 5.300781 -11.046875 5.671875 -10.738281 6.109375 -10.5 C 6.554688 -10.257812 7.039062 -9.976562 7.5625 -9.65625 C 8.082031 -9.332031 8.566406 -9.007812 9.015625 -8.6875 C 9.460938 -8.375 9.832031 -7.941406 10.125 -7.390625 C 10.425781 -6.835938 10.578125 -6.210938 10.578125 -5.515625 C 10.578125 -3.785156 9.957031 -2.382812 8.71875 -1.3125 C 7.488281 -0.25 5.984375 0.28125 4.203125 0.28125 C 2.210938 0.28125 0.535156 -0.1875 -0.828125 -1.125 L 0.625 -3.609375 C 1.632812 -2.492188 2.835938 -1.9375 4.234375 -1.9375 C 5.054688 -1.9375 5.769531 -2.191406 6.375 -2.703125 C 6.988281 -3.210938 7.296875 -3.875 7.296875 -4.6875 C 7.296875 -5.238281 7.085938 -5.726562 6.671875 -6.15625 C 6.253906 -6.59375 5.75 -6.972656 5.15625 -7.296875 C 4.570312 -7.617188 3.976562 -7.953125 3.375 -8.296875 C 2.78125 -8.648438 2.273438 -9.125 1.859375 -9.71875 C 1.441406 -10.320312 1.234375 -11.023438 1.234375 -11.828125 C 1.234375 -13.585938 1.84375 -14.90625 3.0625 -15.78125 C 4.289062 -16.664062 5.820312 -17.109375 7.65625 -17.109375 C 8.289062 -17.109375 9.015625 -16.972656 9.828125 -16.703125 C 10.648438 -16.441406 11.273438 -16.117188 11.703125 -15.734375 Z M 11.703125 -15.734375" transform="translate(107.15 391.881)"/></g></g></g><g><g><g><path d="M 11.703125 -15.734375 L 10.34375 -13.609375 C 10.007812 -13.984375 9.507812 -14.289062 8.84375 -14.53125 C 8.1875 -14.78125 7.59375 -14.90625 7.0625 -14.90625 C 6.375 -14.90625 5.78125 -14.703125 5.28125 -14.296875 C 4.789062 -13.890625 4.546875 -13.34375 4.546875 -12.65625 C 4.546875 -12.207031 4.695312 -11.796875 5 -11.421875 C 5.300781 -11.046875 5.671875 -10.738281 6.109375 -10.5 C 6.554688 -10.257812 7.039062 -9.976562 7.5625 -9.65625 C 8.082031 -9.332031 8.566406 -9.007812 9.015625 -8.6875 C 9.460938 -8.375 9.832031 -7.941406 10.125 -7.390625 C 10.425781 -6.835938 10.578125 -6.210938 10.578125 -5.515625 C 10.578125 -3.785156 9.957031 -2.382812 8.71875 -1.3125 C 7.488281 -0.25 5.984375 0.28125 4.203125 0.28125 C 2.210938 0.28125 0.535156 -0.1875 -0.828125 -1.125 L 0.625 -3.609375 C 1.632812 -2.492188 2.835938 -1.9375 4.234375 -1.9375 C 5.054688 -1.9375 5.769531 -2.191406 6.375 -2.703125 C 6.988281 -3.210938 7.296875 -3.875 7.296875 -4.6875 C 7.296875 -5.238281 7.085938 -5.726562 6.671875 -6.15625 C 6.253906 -6.59375 5.75 -6.972656 5.15625 -7.296875 C 4.570312 -7.617188 3.976562 -7.953125 3.375 -8.296875 C 2.78125 -8.648438 2.273438 -9.125 1.859375 -9.71875 C 1.441406 -10.320312 1.234375 -11.023438 1.234375 -11.828125 C 1.234375 -13.585938 1.84375 -14.90625 3.0625 -15.78125 C 4.289062 -16.664062 5.820312 -17.109375 7.65625 -17.109375 C 8.289062 -17.109375 9.015625 -16.972656 9.828125 -16.703125 C 10.648438 -16.441406 11.273438 -16.117188 11.703125 -15.734375 Z M 11.703125 -15.734375" transform="translate(118.992 391.881)"/></g></g></g><g><g><g><path d="M 8.875 -11.453125 L 8.125 -8.671875 L 4.03125 -8.671875 L 3.546875 -7.515625 C 6.109375 -6.015625 7.390625 -4.140625 7.390625 -1.890625 C 7.390625 -0.929688 7.164062 -0.046875 6.71875 0.765625 C 6.269531 1.578125 5.6875 2.25 4.96875 2.78125 C 4.25 3.320312 3.472656 3.753906 2.640625 4.078125 C 1.816406 4.410156 0.96875 4.640625 0.09375 4.765625 L -0.390625 3.328125 C 0.972656 2.898438 2.125 2.269531 3.0625 1.4375 C 4.007812 0.601562 4.484375 -0.460938 4.484375 -1.765625 C 4.484375 -2.691406 4.078125 -3.5625 3.265625 -4.375 C 2.460938 -5.195312 1.570312 -5.832031 0.59375 -6.28125 L 2.828125 -11.453125 Z M 8.875 -11.453125" transform="translate(515.544 418.781)"/></g></g></g><g><g><g><path d="M 12.390625 -6.921875 C 12.390625 -5.953125 12.265625 -5.050781 12.015625 -4.21875 C 11.773438 -3.382812 11.398438 -2.617188 10.890625 -1.921875 C 10.390625 -1.234375 9.707031 -0.691406 8.84375 -0.296875 C 7.976562 0.0859375 6.976562 0.28125 5.84375 0.28125 C 4.257812 0.28125 3.035156 -0.140625 2.171875 -0.984375 C 1.304688 -1.828125 0.875 -3.007812 0.875 -4.53125 C 0.875 -6.78125 1.46875 -8.539062 2.65625 -9.8125 C 3.84375 -11.09375 5.429688 -11.734375 7.421875 -11.734375 C 9.035156 -11.734375 10.265625 -11.3125 11.109375 -10.46875 C 11.960938 -9.632812 12.390625 -8.453125 12.390625 -6.921875 Z M 6.09375 -1.59375 C 6.738281 -1.59375 7.296875 -1.753906 7.765625 -2.078125 C 8.242188 -2.410156 8.601562 -2.851562 8.84375 -3.40625 C 9.09375 -3.96875 9.269531 -4.539062 9.375 -5.125 C 9.488281 -5.707031 9.546875 -6.320312 9.546875 -6.96875 C 9.546875 -8.894531 8.753906 -9.859375 7.171875 -9.859375 C 6.515625 -9.859375 5.941406 -9.679688 5.453125 -9.328125 C 4.972656 -8.984375 4.613281 -8.519531 4.375 -7.9375 C 4.144531 -7.351562 3.972656 -6.765625 3.859375 -6.171875 C 3.753906 -5.585938 3.703125 -4.976562 3.703125 -4.34375 C 3.703125 -2.507812 4.5 -1.59375 6.09375 -1.59375 Z M 6.09375 -1.59375" transform="translate(524.557 418.781)"/></g></g></g><g><g><g><path d="M 17.578125 -5.640625 C 17.578125 -4.097656 17.179688 -2.753906 16.390625 -1.609375 C 15.597656 -0.472656 14.472656 0.09375 13.015625 0.09375 C 11.910156 0.09375 11.082031 -0.242188 10.53125 -0.921875 C 9.976562 -1.597656 9.703125 -2.492188 9.703125 -3.609375 C 9.703125 -5.140625 10.097656 -6.472656 10.890625 -7.609375 C 11.679688 -8.742188 12.804688 -9.3125 14.265625 -9.3125 C 15.367188 -9.3125 16.195312 -8.976562 16.75 -8.3125 C 17.300781 -7.644531 17.578125 -6.753906 17.578125 -5.640625 Z M 14.671875 -16.078125 L 4.921875 0.28125 L 3.375 0.28125 L 12.421875 -14.828125 L 8.125 -14.828125 C 8.425781 -14.265625 8.578125 -13.566406 8.578125 -12.734375 C 8.578125 -11.203125 8.179688 -9.859375 7.390625 -8.703125 C 6.597656 -7.554688 5.46875 -6.984375 4 -6.984375 C 2.914062 -6.984375 2.09375 -7.320312 1.53125 -8 C 0.96875 -8.675781 0.6875 -9.570312 0.6875 -10.6875 C 0.6875 -12.226562 1.082031 -13.566406 1.875 -14.703125 C 2.664062 -15.835938 3.796875 -16.40625 5.265625 -16.40625 C 5.878906 -16.40625 6.410156 -16.296875 6.859375 -16.078125 Z M 15.203125 -5.6875 C 15.203125 -6.894531 14.8125 -7.5 14.03125 -7.5 C 13.644531 -7.5 13.316406 -7.351562 13.046875 -7.0625 C 12.785156 -6.769531 12.582031 -6.398438 12.4375 -5.953125 C 12.300781 -5.515625 12.207031 -5.09375 12.15625 -4.6875 C 12.101562 -4.289062 12.078125 -3.914062 12.078125 -3.5625 C 12.078125 -2.332031 12.46875 -1.71875 13.25 -1.71875 C 13.632812 -1.71875 13.957031 -1.863281 14.21875 -2.15625 C 14.488281 -2.445312 14.691406 -2.816406 14.828125 -3.265625 C 14.972656 -3.710938 15.070312 -4.140625 15.125 -4.546875 C 15.175781 -4.953125 15.203125 -5.332031 15.203125 -5.6875 Z M 6.203125 -12.765625 C 6.203125 -13.972656 5.804688 -14.578125 5.015625 -14.578125 C 4.628906 -14.578125 4.300781 -14.4375 4.03125 -14.15625 C 3.769531 -13.875 3.570312 -13.503906 3.4375 -13.046875 C 3.3125 -12.597656 3.21875 -12.171875 3.15625 -11.765625 C 3.101562 -11.367188 3.078125 -11 3.078125 -10.65625 C 3.078125 -9.425781 3.46875 -8.8125 4.25 -8.8125 C 4.632812 -8.8125 4.960938 -8.957031 5.234375 -9.25 C 5.503906 -9.539062 5.707031 -9.90625 5.84375 -10.34375 C 5.976562 -10.789062 6.070312 -11.21875 6.125 -11.625 C 6.175781 -12.03125 6.203125 -12.410156 6.203125 -12.765625 Z M 6.203125 -12.765625" transform="translate(538.307 418.781)"/></g></g></g><path stroke-linecap="round" transform="matrix(3.75163 0 0 3.75 70.728 610.97)" fill="none" d="M 0.50044 -0.000417937 L 129.04673 -0.000417937" stroke="#D9D9D9"/><path stroke-linecap="round" transform="matrix(3.72645 .05667 -.05702 3.74957 70.738 611.784)" fill="none" d="M 0.500021 -0.0000240163 L 13.185947 -0.0000714979" stroke="#FF5757"/><g><g><g><path d="M 5.59375 -16.84375 L 3.609375 -1.859375 C 3.515625 -1.179688 3.441406 -0.660156 3.390625 -0.296875 C 3.335938 0.0546875 3.238281 0.523438 3.09375 1.109375 C 2.957031 1.703125 2.8125 2.160156 2.65625 2.484375 C 2.507812 2.804688 2.296875 3.171875 2.015625 3.578125 C 1.742188 3.992188 1.429688 4.304688 1.078125 4.515625 C 0.722656 4.722656 0.296875 4.90625 -0.203125 5.0625 C -0.710938 5.21875 -1.289062 5.296875 -1.9375 5.296875 C -3.125 5.296875 -4.210938 4.957031 -5.203125 4.28125 L -3.765625 2.375 C -3.273438 2.925781 -2.707031 3.203125 -2.0625 3.203125 C -1.625 3.203125 -1.238281 3.054688 -0.90625 2.765625 C -0.570312 2.484375 -0.3125 2.082031 -0.125 1.5625 C 0.0507812 1.039062 0.175781 0.597656 0.25 0.234375 C 0.332031 -0.117188 0.410156 -0.554688 0.484375 -1.078125 L 2.421875 -15.4375 L 2.28125 -16.84375 Z M 5.59375 -16.84375" transform="translate(83.916 566.783)"/></g></g></g><g><g><g><path d="M 12.53125 0 L 9.3125 0 L 8.375 -4.828125 L 3.859375 -4.828125 L 1.59375 0 L -1.265625 0 L 6.640625 -16.84375 L 9.125 -16.84375 Z M 7.890625 -7.078125 C 7.816406 -7.460938 7.554688 -9.378906 7.109375 -12.828125 C 6.984375 -12.523438 6.671875 -11.679688 6.171875 -10.296875 C 5.671875 -8.910156 5.253906 -7.835938 4.921875 -7.078125 Z M 7.890625 -7.078125" transform="translate(90.216 566.783)"/></g></g></g><g><g><g><path d="M 14.171875 -16.84375 L 6.390625 0.015625 L 4.046875 0.015625 L 0.8125 -16.84375 L 4 -16.84375 L 5.8125 -7.21875 C 5.863281 -6.976562 5.910156 -6.640625 5.953125 -6.203125 C 6.003906 -5.765625 6.035156 -5.382812 6.046875 -5.0625 L 6.078125 -4.59375 C 6.472656 -6.007812 6.832031 -7.0625 7.15625 -7.75 L 11.3125 -16.84375 Z M 14.171875 -16.84375" transform="translate(104.126 566.783)"/></g></g></g><g><g><g><path d="M 12.53125 0 L 9.3125 0 L 8.375 -4.828125 L 3.859375 -4.828125 L 1.59375 0 L -1.265625 0 L 6.640625 -16.84375 L 9.125 -16.84375 Z M 7.890625 -7.078125 C 7.816406 -7.460938 7.554688 -9.378906 7.109375 -12.828125 C 6.984375 -12.523438 6.671875 -11.679688 6.171875 -10.296875 C 5.671875 -8.910156 5.253906 -7.835938 4.921875 -7.078125 Z M 7.890625 -7.078125" transform="translate(117.485 566.783)"/></g></g></g><g><g><g><path d="M 11.703125 -15.734375 L 10.34375 -13.609375 C 10.007812 -13.984375 9.507812 -14.289062 8.84375 -14.53125 C 8.1875 -14.78125 7.59375 -14.90625 7.0625 -14.90625 C 6.375 -14.90625 5.78125 -14.703125 5.28125 -14.296875 C 4.789062 -13.890625 4.546875 -13.34375 4.546875 -12.65625 C 4.546875 -12.207031 4.695312 -11.796875 5 -11.421875 C 5.300781 -11.046875 5.671875 -10.738281 6.109375 -10.5 C 6.554688 -10.257812 7.039062 -9.976562 7.5625 -9.65625 C 8.082031 -9.332031 8.566406 -9.007812 9.015625 -8.6875 C 9.460938 -8.375 9.832031 -7.941406 10.125 -7.390625 C 10.425781 -6.835938 10.578125 -6.210938 10.578125 -5.515625 C 10.578125 -3.785156 9.957031 -2.382812 8.71875 -1.3125 C 7.488281 -0.25 5.984375 0.28125 4.203125 0.28125 C 2.210938 0.28125 0.535156 -0.1875 -0.828125 -1.125 L 0.625 -3.609375 C 1.632812 -2.492188 2.835938 -1.9375 4.234375 -1.9375 C 5.054688 -1.9375 5.769531 -2.191406 6.375 -2.703125 C 6.988281 -3.210938 7.296875 -3.875 7.296875 -4.6875 C 7.296875 -5.238281 7.085938 -5.726562 6.671875 -6.15625 C 6.253906 -6.59375 5.75 -6.972656 5.15625 -7.296875 C 4.570312 -7.617188 3.976562 -7.953125 3.375 -8.296875 C 2.78125 -8.648438 2.273438 -9.125 1.859375 -9.71875 C 1.441406 -10.320312 1.234375 -11.023438 1.234375 -11.828125 C 1.234375 -13.585938 1.84375 -14.90625 3.0625 -15.78125 C 4.289062 -16.664062 5.820312 -17.109375 7.65625 -17.109375 C 8.289062 -17.109375 9.015625 -16.972656 9.828125 -16.703125 C 10.648438 -16.441406 11.273438 -16.117188 11.703125 -15.734375 Z M 11.703125 -15.734375" transform="translate(131.395 566.783)"/></g></g></g><g><g><g><path d="M 14.3125 -15.53125 L 12.4375 -13.40625 C 12.101562 -13.882812 11.625 -14.253906 11 -14.515625 C 10.382812 -14.785156 9.769531 -14.921875 9.15625 -14.921875 C 8.238281 -14.921875 7.414062 -14.679688 6.6875 -14.203125 C 5.957031 -13.734375 5.378906 -13.117188 4.953125 -12.359375 C 4.535156 -11.597656 4.21875 -10.785156 4 -9.921875 C 3.789062 -9.066406 3.6875 -8.210938 3.6875 -7.359375 C 3.6875 -6.484375 3.789062 -5.65625 4 -4.875 C 4.21875 -4.09375 4.625 -3.398438 5.21875 -2.796875 C 5.820312 -2.191406 6.566406 -1.890625 7.453125 -1.890625 C 8.796875 -1.890625 10.113281 -2.460938 11.40625 -3.609375 L 12.484375 -1.421875 C 10.648438 -0.285156 8.816406 0.28125 6.984375 0.28125 C 4.859375 0.28125 3.226562 -0.347656 2.09375 -1.609375 C 0.957031 -2.867188 0.390625 -4.578125 0.390625 -6.734375 C 0.390625 -8.066406 0.59375 -9.347656 1 -10.578125 C 1.40625 -11.816406 1.972656 -12.925781 2.703125 -13.90625 C 3.441406 -14.894531 4.382812 -15.679688 5.53125 -16.265625 C 6.6875 -16.859375 7.957031 -17.15625 9.34375 -17.15625 C 10.226562 -17.15625 11.144531 -17.015625 12.09375 -16.734375 C 13.050781 -16.460938 13.789062 -16.0625 14.3125 -15.53125 Z M 14.3125 -15.53125" transform="translate(143.237 566.783)"/></g></g></g><g><g><g><path d="M 12.484375 -12.703125 C 12.484375 -11.546875 12.109375 -10.539062 11.359375 -9.6875 C 10.609375 -8.84375 9.648438 -8.273438 8.484375 -7.984375 L 12.3125 0 L 8.90625 0 L 5.46875 -7.5 L 4.28125 -7.5 L 3.265625 0 L 0.25 0 L 2.328125 -15.4375 L 2.1875 -16.84375 L 7.6875 -16.84375 C 9.050781 -16.84375 10.191406 -16.492188 11.109375 -15.796875 C 12.023438 -15.097656 12.484375 -14.066406 12.484375 -12.703125 Z M 9.296875 -12.625 C 9.296875 -13.238281 9.082031 -13.707031 8.65625 -14.03125 C 8.238281 -14.363281 7.710938 -14.53125 7.078125 -14.53125 L 5.203125 -14.53125 L 4.578125 -9.75 L 5.953125 -9.75 C 6.960938 -9.75 7.769531 -9.976562 8.375 -10.4375 C 8.988281 -10.894531 9.296875 -11.625 9.296875 -12.625 Z M 9.296875 -12.625" transform="translate(157.193 566.783)"/></g></g></g><g><g><g><path d="M 5.5 -16.84375 L 3.265625 0 L 0.25 0 L 2.328125 -15.4375 L 2.1875 -16.84375 Z M 5.5 -16.84375" transform="translate(170.644 566.783)"/></g></g></g><g><g><g><path d="M 12.4375 -12.4375 C 12.4375 -10.601562 11.832031 -9.195312 10.625 -8.21875 C 9.414062 -7.25 7.851562 -6.765625 5.9375 -6.765625 L 4.15625 -6.765625 L 3.265625 0 L 0.25 0 L 2.328125 -15.4375 L 2.1875 -16.84375 L 7.265625 -16.84375 C 8.765625 -16.84375 10 -16.476562 10.96875 -15.75 C 11.945312 -15.03125 12.4375 -13.925781 12.4375 -12.4375 Z M 9.25 -12.375 C 9.25 -13.082031 9.0625 -13.625 8.6875 -14 C 8.320312 -14.375 7.785156 -14.5625 7.078125 -14.5625 L 5.21875 -14.5625 L 4.484375 -9 L 6.328125 -9 C 7.234375 -9 7.945312 -9.332031 8.46875 -10 C 8.988281 -10.664062 9.25 -11.457031 9.25 -12.375 Z M 9.25 -12.375" transform="translate(176.852 566.783)"/></g></g></g><g><g><g><path d="M 13.0625 -16.84375 L 12.734375 -14.5625 L 8.25 -14.5625 L 6.296875 0 L 3.171875 0 L 5.109375 -14.5625 L 0.6875 -14.5625 L 0.984375 -16.84375 Z M 13.0625 -16.84375" transform="translate(189.704 566.783)"/></g></g></g><g><g><g><path d="M 7.546875 0 L 0.25 0 L 0.546875 -2.28125 L 2.921875 -2.28125 L 3.75 -8.6875 L 1.3125 -8.03125 L 1.03125 -9.5 L 5.0625 -11.453125 L 6.765625 -11.453125 L 5.5625 -2.28125 L 7.84375 -2.28125 Z M 7.546875 0" transform="translate(515.415 593.683)"/></g></g></g><g><g><g><path d="M 12.390625 -6.921875 C 12.390625 -5.953125 12.265625 -5.050781 12.015625 -4.21875 C 11.773438 -3.382812 11.398438 -2.617188 10.890625 -1.921875 C 10.390625 -1.234375 9.707031 -0.691406 8.84375 -0.296875 C 7.976562 0.0859375 6.976562 0.28125 5.84375 0.28125 C 4.257812 0.28125 3.035156 -0.140625 2.171875 -0.984375 C 1.304688 -1.828125 0.875 -3.007812 0.875 -4.53125 C 0.875 -6.78125 1.46875 -8.539062 2.65625 -9.8125 C 3.84375 -11.09375 5.429688 -11.734375 7.421875 -11.734375 C 9.035156 -11.734375 10.265625 -11.3125 11.109375 -10.46875 C 11.960938 -9.632812 12.390625 -8.453125 12.390625 -6.921875 Z M 6.09375 -1.59375 C 6.738281 -1.59375 7.296875 -1.753906 7.765625 -2.078125 C 8.242188 -2.410156 8.601562 -2.851562 8.84375 -3.40625 C 9.09375 -3.96875 9.269531 -4.539062 9.375 -5.125 C 9.488281 -5.707031 9.546875 -6.320312 9.546875 -6.96875 C 9.546875 -8.894531 8.753906 -9.859375 7.171875 -9.859375 C 6.515625 -9.859375 5.941406 -9.679688 5.453125 -9.328125 C 4.972656 -8.984375 4.613281 -8.519531 4.375 -7.9375 C 4.144531 -7.351562 3.972656 -6.765625 3.859375 -6.171875 C 3.753906 -5.585938 3.703125 -4.976562 3.703125 -4.34375 C 3.703125 -2.507812 4.5 -1.59375 6.09375 -1.59375 Z M 6.09375 -1.59375" transform="translate(524.681 593.683)"/></g></g></g><g><g><g><path d="M 17.578125 -5.640625 C 17.578125 -4.097656 17.179688 -2.753906 16.390625 -1.609375 C 15.597656 -0.472656 14.472656 0.09375 13.015625 0.09375 C 11.910156 0.09375 11.082031 -0.242188 10.53125 -0.921875 C 9.976562 -1.597656 9.703125 -2.492188 9.703125 -3.609375 C 9.703125 -5.140625 10.097656 -6.472656 10.890625 -7.609375 C 11.679688 -8.742188 12.804688 -9.3125 14.265625 -9.3125 C 15.367188 -9.3125 16.195312 -8.976562 16.75 -8.3125 C 17.300781 -7.644531 17.578125 -6.753906 17.578125 -5.640625 Z M 14.671875 -16.078125 L 4.921875 0.28125 L 3.375 0.28125 L 12.421875 -14.828125 L 8.125 -14.828125 C 8.425781 -14.265625 8.578125 -13.566406 8.578125 -12.734375 C 8.578125 -11.203125 8.179688 -9.859375 7.390625 -8.703125 C 6.597656 -7.554688 5.46875 -6.984375 4 -6.984375 C 2.914062 -6.984375 2.09375 -7.320312 1.53125 -8 C 0.96875 -8.675781 0.6875 -9.570312 0.6875 -10.6875 C 0.6875 -12.226562 1.082031 -13.566406 1.875 -14.703125 C 2.664062 -15.835938 3.796875 -16.40625 5.265625 -16.40625 C 5.878906 -16.40625 6.410156 -16.296875 6.859375 -16.078125 Z M 15.203125 -5.6875 C 15.203125 -6.894531 14.8125 -7.5 14.03125 -7.5 C 13.644531 -7.5 13.316406 -7.351562 13.046875 -7.0625 C 12.785156 -6.769531 12.582031 -6.398438 12.4375 -5.953125 C 12.300781 -5.515625 12.207031 -5.09375 12.15625 -4.6875 C 12.101562 -4.289062 12.078125 -3.914062 12.078125 -3.5625 C 12.078125 -2.332031 12.46875 -1.71875 13.25 -1.71875 C 13.632812 -1.71875 13.957031 -1.863281 14.21875 -2.15625 C 14.488281 -2.445312 14.691406 -2.816406 14.828125 -3.265625 C 14.972656 -3.710938 15.070312 -4.140625 15.125 -4.546875 C 15.175781 -4.953125 15.203125 -5.332031 15.203125 -5.6875 Z M 6.203125 -12.765625 C 6.203125 -13.972656 5.804688 -14.578125 5.015625 -14.578125 C 4.628906 -14.578125 4.300781 -14.4375 4.03125 -14.15625 C 3.769531 -13.875 3.570312 -13.503906 3.4375 -13.046875 C 3.3125 -12.597656 3.21875 -12.171875 3.15625 -11.765625 C 3.101562 -11.367188 3.078125 -11 3.078125 -10.65625 C 3.078125 -9.425781 3.46875 -8.8125 4.25 -8.8125 C 4.632812 -8.8125 4.960938 -8.957031 5.234375 -9.25 C 5.503906 -9.539062 5.707031 -9.90625 5.84375 -10.34375 C 5.976562 -10.789062 6.070312 -11.21875 6.125 -11.625 C 6.175781 -12.03125 6.203125 -12.410156 6.203125 -12.765625 Z M 6.203125 -12.765625" transform="translate(538.43 593.683)"/></g></g></g><path stroke-linecap="round" transform="matrix(3.75163 0 0 3.75 862.179 436.069)" fill="none" d="M 0.500015 0.000431583 L 129.046305 0.000431583" stroke="#D9D9D9"/><path stroke-linecap="round" transform="matrix(3.75172 0 0 3.75 862.19 436.069)" fill="none" d="M 0.500395 0.000437983 L 129.043572 0.000437983" stroke="#FF5757"/><g><g><g><path d="M 12.234375 -16.84375 L 11.9375 -14.5625 L 5.203125 -14.5625 L 4.546875 -9.796875 L 9.703125 -9.796875 L 9.40625 -7.515625 L 4.25 -7.515625 L 3.5625 -2.28125 L 10.28125 -2.28125 L 9.984375 0 L 0.25 0 L 2.328125 -15.4375 L 2.15625 -16.84375 Z M 12.234375 -16.84375" transform="translate(872.118 391.881)"/></g></g></g><g><g><g><path d="M 14.171875 -16.84375 L 8.515625 -9 L 12.34375 0 L 8.875 0 L 6.28125 -5.984375 L 2.203125 0 L -1.15625 0 L 5.15625 -8.671875 L 1.609375 -16.84375 L 5.078125 -16.84375 L 7.34375 -11.734375 L 10.828125 -16.84375 Z M 14.171875 -16.84375" transform="translate(884.235 391.881)"/></g></g></g><g><g><g><path d="M 14.3125 -15.53125 L 12.4375 -13.40625 C 12.101562 -13.882812 11.625 -14.253906 11 -14.515625 C 10.382812 -14.785156 9.769531 -14.921875 9.15625 -14.921875 C 8.238281 -14.921875 7.414062 -14.679688 6.6875 -14.203125 C 5.957031 -13.734375 5.378906 -13.117188 4.953125 -12.359375 C 4.535156 -11.597656 4.21875 -10.785156 4 -9.921875 C 3.789062 -9.066406 3.6875 -8.210938 3.6875 -7.359375 C 3.6875 -6.484375 3.789062 -5.65625 4 -4.875 C 4.21875 -4.09375 4.625 -3.398438 5.21875 -2.796875 C 5.820312 -2.191406 6.566406 -1.890625 7.453125 -1.890625 C 8.796875 -1.890625 10.113281 -2.460938 11.40625 -3.609375 L 12.484375 -1.421875 C 10.648438 -0.285156 8.816406 0.28125 6.984375 0.28125 C 4.859375 0.28125 3.226562 -0.347656 2.09375 -1.609375 C 0.957031 -2.867188 0.390625 -4.578125 0.390625 -6.734375 C 0.390625 -8.066406 0.59375 -9.347656 1 -10.578125 C 1.40625 -11.816406 1.972656 -12.925781 2.703125 -13.90625 C 3.441406 -14.894531 4.382812 -15.679688 5.53125 -16.265625 C 6.6875 -16.859375 7.957031 -17.15625 9.34375 -17.15625 C 10.226562 -17.15625 11.144531 -17.015625 12.09375 -16.734375 C 13.050781 -16.460938 13.789062 -16.0625 14.3125 -15.53125 Z M 14.3125 -15.53125" transform="translate(897.709 391.881)"/></g></g></g><g><g><g><path d="M 12.234375 -16.84375 L 11.9375 -14.5625 L 5.203125 -14.5625 L 4.546875 -9.796875 L 9.703125 -9.796875 L 9.40625 -7.515625 L 4.25 -7.515625 L 3.5625 -2.28125 L 10.28125 -2.28125 L 9.984375 0 L 0.25 0 L 2.328125 -15.4375 L 2.15625 -16.84375 Z M 12.234375 -16.84375" transform="translate(911.665 391.881)"/></g></g></g><g><g><g><path d="M 9.84375 -2.28125 L 9.546875 0 L 0.25 0 L 2.328125 -15.4375 L 2.203125 -16.84375 L 5.515625 -16.84375 L 3.59375 -2.28125 Z M 9.84375 -2.28125" transform="translate(923.782 391.881)"/></g></g></g><g><g><g><path d="M 7.546875 0 L 0.25 0 L 0.546875 -2.28125 L 2.921875 -2.28125 L 3.75 -8.6875 L 1.3125 -8.03125 L 1.03125 -9.5 L 5.0625 -11.453125 L 6.765625 -11.453125 L 5.5625 -2.28125 L 7.84375 -2.28125 Z M 7.546875 0" transform="translate(1299.987 418.781)"/></g></g></g><g><g><g><path d="M 12.390625 -6.921875 C 12.390625 -5.953125 12.265625 -5.050781 12.015625 -4.21875 C 11.773438 -3.382812 11.398438 -2.617188 10.890625 -1.921875 C 10.390625 -1.234375 9.707031 -0.691406 8.84375 -0.296875 C 7.976562 0.0859375 6.976562 0.28125 5.84375 0.28125 C 4.257812 0.28125 3.035156 -0.140625 2.171875 -0.984375 C 1.304688 -1.828125 0.875 -3.007812 0.875 -4.53125 C 0.875 -6.78125 1.46875 -8.539062 2.65625 -9.8125 C 3.84375 -11.09375 5.429688 -11.734375 7.421875 -11.734375 C 9.035156 -11.734375 10.265625 -11.3125 11.109375 -10.46875 C 11.960938 -9.632812 12.390625 -8.453125 12.390625 -6.921875 Z M 6.09375 -1.59375 C 6.738281 -1.59375 7.296875 -1.753906 7.765625 -2.078125 C 8.242188 -2.410156 8.601562 -2.851562 8.84375 -3.40625 C 9.09375 -3.96875 9.269531 -4.539062 9.375 -5.125 C 9.488281 -5.707031 9.546875 -6.320312 9.546875 -6.96875 C 9.546875 -8.894531 8.753906 -9.859375 7.171875 -9.859375 C 6.515625 -9.859375 5.941406 -9.679688 5.453125 -9.328125 C 4.972656 -8.984375 4.613281 -8.519531 4.375 -7.9375 C 4.144531 -7.351562 3.972656 -6.765625 3.859375 -6.171875 C 3.753906 -5.585938 3.703125 -4.976562 3.703125 -4.34375 C 3.703125 -2.507812 4.5 -1.59375 6.09375 -1.59375 Z M 6.09375 -1.59375" transform="translate(1309.253 418.781)"/></g></g></g><g><g><g><path d="M 12.390625 -6.921875 C 12.390625 -5.953125 12.265625 -5.050781 12.015625 -4.21875 C 11.773438 -3.382812 11.398438 -2.617188 10.890625 -1.921875 C 10.390625 -1.234375 9.707031 -0.691406 8.84375 -0.296875 C 7.976562 0.0859375 6.976562 0.28125 5.84375 0.28125 C 4.257812 0.28125 3.035156 -0.140625 2.171875 -0.984375 C 1.304688 -1.828125 0.875 -3.007812 0.875 -4.53125 C 0.875 -6.78125 1.46875 -8.539062 2.65625 -9.8125 C 3.84375 -11.09375 5.429688 -11.734375 7.421875 -11.734375 C 9.035156 -11.734375 10.265625 -11.3125 11.109375 -10.46875 C 11.960938 -9.632812 12.390625 -8.453125 12.390625 -6.921875 Z M 6.09375 -1.59375 C 6.738281 -1.59375 7.296875 -1.753906 7.765625 -2.078125 C 8.242188 -2.410156 8.601562 -2.851562 8.84375 -3.40625 C 9.09375 -3.96875 9.269531 -4.539062 9.375 -5.125 C 9.488281 -5.707031 9.546875 -6.320312 9.546875 -6.96875 C 9.546875 -8.894531 8.753906 -9.859375 7.171875 -9.859375 C 6.515625 -9.859375 5.941406 -9.679688 5.453125 -9.328125 C 4.972656 -8.984375 4.613281 -8.519531 4.375 -7.9375 C 4.144531 -7.351562 3.972656 -6.765625 3.859375 -6.171875 C 3.753906 -5.585938 3.703125 -4.976562 3.703125 -4.34375 C 3.703125 -2.507812 4.5 -1.59375 6.09375 -1.59375 Z M 6.09375 -1.59375" transform="translate(1323.003 418.781)"/></g></g></g><g><g><g><path d="M 17.578125 -5.640625 C 17.578125 -4.097656 17.179688 -2.753906 16.390625 -1.609375 C 15.597656 -0.472656 14.472656 0.09375 13.015625 0.09375 C 11.910156 0.09375 11.082031 -0.242188 10.53125 -0.921875 C 9.976562 -1.597656 9.703125 -2.492188 9.703125 -3.609375 C 9.703125 -5.140625 10.097656 -6.472656 10.890625 -7.609375 C 11.679688 -8.742188 12.804688 -9.3125 14.265625 -9.3125 C 15.367188 -9.3125 16.195312 -8.976562 16.75 -8.3125 C 17.300781 -7.644531 17.578125 -6.753906 17.578125 -5.640625 Z M 14.671875 -16.078125 L 4.921875 0.28125 L 3.375 0.28125 L 12.421875 -14.828125 L 8.125 -14.828125 C 8.425781 -14.265625 8.578125 -13.566406 8.578125 -12.734375 C 8.578125 -11.203125 8.179688 -9.859375 7.390625 -8.703125 C 6.597656 -7.554688 5.46875 -6.984375 4 -6.984375 C 2.914062 -6.984375 2.09375 -7.320312 1.53125 -8 C 0.96875 -8.675781 0.6875 -9.570312 0.6875 -10.6875 C 0.6875 -12.226562 1.082031 -13.566406 1.875 -14.703125 C 2.664062 -15.835938 3.796875 -16.40625 5.265625 -16.40625 C 5.878906 -16.40625 6.410156 -16.296875 6.859375 -16.078125 Z M 15.203125 -5.6875 C 15.203125 -6.894531 14.8125 -7.5 14.03125 -7.5 C 13.644531 -7.5 13.316406 -7.351562 13.046875 -7.0625 C 12.785156 -6.769531 12.582031 -6.398438 12.4375 -5.953125 C 12.300781 -5.515625 12.207031 -5.09375 12.15625 -4.6875 C 12.101562 -4.289062 12.078125 -3.914062 12.078125 -3.5625 C 12.078125 -2.332031 12.46875 -1.71875 13.25 -1.71875 C 13.632812 -1.71875 13.957031 -1.863281 14.21875 -2.15625 C 14.488281 -2.445312 14.691406 -2.816406 14.828125 -3.265625 C 14.972656 -3.710938 15.070312 -4.140625 15.125 -4.546875 C 15.175781 -4.953125 15.203125 -5.332031 15.203125 -5.6875 Z M 6.203125 -12.765625 C 6.203125 -13.972656 5.804688 -14.578125 5.015625 -14.578125 C 4.628906 -14.578125 4.300781 -14.4375 4.03125 -14.15625 C 3.769531 -13.875 3.570312 -13.503906 3.4375 -13.046875 C 3.3125 -12.597656 3.21875 -12.171875 3.15625 -11.765625 C 3.101562 -11.367188 3.078125 -11 3.078125 -10.65625 C 3.078125 -9.425781 3.46875 -8.8125 4.25 -8.8125 C 4.632812 -8.8125 4.960938 -8.957031 5.234375 -9.25 C 5.503906 -9.539062 5.707031 -9.90625 5.84375 -10.34375 C 5.976562 -10.789062 6.070312 -11.21875 6.125 -11.625 C 6.175781 -12.03125 6.203125 -12.410156 6.203125 -12.765625 Z M 6.203125 -12.765625" transform="translate(1336.752 418.781)"/></g></g></g><path stroke-linecap="round" transform="matrix(3.75163 0 0 3.75 862.179 607.22)" fill="none" d="M 0.500015 -0.000417987 L 129.046305 -0.000417987" stroke="#D9D9D9"/><path stroke-linecap="round" transform="matrix(3.75172 0 0 3.75 862.19 607.22)" fill="none" d="M 0.500395 -0.000417987 L 129.043572 -0.000417987" stroke="#FF5757"/><g><g><g><path d="M 12.4375 -12.4375 C 12.4375 -10.601562 11.832031 -9.195312 10.625 -8.21875 C 9.414062 -7.25 7.851562 -6.765625 5.9375 -6.765625 L 4.15625 -6.765625 L 3.265625 0 L 0.25 0 L 2.328125 -15.4375 L 2.1875 -16.84375 L 7.265625 -16.84375 C 8.765625 -16.84375 10 -16.476562 10.96875 -15.75 C 11.945312 -15.03125 12.4375 -13.925781 12.4375 -12.4375 Z M 9.25 -12.375 C 9.25 -13.082031 9.0625 -13.625 8.6875 -14 C 8.320312 -14.375 7.785156 -14.5625 7.078125 -14.5625 L 5.21875 -14.5625 L 4.484375 -9 L 6.328125 -9 C 7.234375 -9 7.945312 -9.332031 8.46875 -10 C 8.988281 -10.664062 9.25 -11.457031 9.25 -12.375 Z M 9.25 -12.375" transform="translate(862.23 563.033)"/></g></g></g><g><g><g><path d="M 15.25 -16.84375 L 13 0 L 9.953125 0 L 10.96875 -7.515625 L 4.25 -7.515625 L 3.265625 0 L 0.25 0 L 2.328125 -15.4375 L 2.1875 -16.84375 L 5.5 -16.84375 L 4.546875 -9.796875 L 11.265625 -9.796875 L 12.21875 -16.84375 Z M 15.25 -16.84375" transform="translate(875.083 563.033)"/></g></g></g><g><g><g><path d="M 15.875 -10.09375 C 15.875 -8.757812 15.671875 -7.472656 15.265625 -6.234375 C 14.859375 -5.003906 14.285156 -3.90625 13.546875 -2.9375 C 12.804688 -1.976562 11.859375 -1.207031 10.703125 -0.625 C 9.546875 -0.0390625 8.28125 0.25 6.90625 0.25 C 4.8125 0.25 3.203125 -0.390625 2.078125 -1.671875 C 0.953125 -2.960938 0.390625 -4.664062 0.390625 -6.78125 C 0.390625 -8.570312 0.722656 -10.238281 1.390625 -11.78125 C 2.054688 -13.320312 3.070312 -14.59375 4.4375 -15.59375 C 5.800781 -16.59375 7.394531 -17.09375 9.21875 -17.09375 C 11.351562 -17.09375 12.992188 -16.460938 14.140625 -15.203125 C 15.296875 -13.941406 15.875 -12.238281 15.875 -10.09375 Z M 12.625 -9.984375 C 12.625 -11.390625 12.335938 -12.5625 11.765625 -13.5 C 11.203125 -14.4375 10.269531 -14.90625 8.96875 -14.90625 C 8.195312 -14.90625 7.5 -14.726562 6.875 -14.375 C 6.25 -14.019531 5.738281 -13.5625 5.34375 -13 C 4.957031 -12.445312 4.628906 -11.804688 4.359375 -11.078125 C 4.085938 -10.359375 3.894531 -9.644531 3.78125 -8.9375 C 3.664062 -8.238281 3.609375 -7.546875 3.609375 -6.859375 C 3.609375 -5.460938 3.890625 -4.289062 4.453125 -3.34375 C 5.023438 -2.40625 5.960938 -1.9375 7.265625 -1.9375 C 8.210938 -1.9375 9.050781 -2.195312 9.78125 -2.71875 C 10.507812 -3.238281 11.066406 -3.914062 11.453125 -4.75 C 11.847656 -5.582031 12.140625 -6.441406 12.328125 -7.328125 C 12.523438 -8.222656 12.625 -9.109375 12.625 -9.984375 Z M 12.625 -9.984375" transform="translate(891.04 563.033)"/></g></g></g><g><g><g><path d="M 13.0625 -16.84375 L 12.734375 -14.5625 L 8.25 -14.5625 L 6.296875 0 L 3.171875 0 L 5.109375 -14.5625 L 0.6875 -14.5625 L 0.984375 -16.84375 Z M 13.0625 -16.84375" transform="translate(907.755 563.033)"/></g></g></g><g><g><g><path d="M 15.875 -10.09375 C 15.875 -8.757812 15.671875 -7.472656 15.265625 -6.234375 C 14.859375 -5.003906 14.285156 -3.90625 13.546875 -2.9375 C 12.804688 -1.976562 11.859375 -1.207031 10.703125 -0.625 C 9.546875 -0.0390625 8.28125 0.25 6.90625 0.25 C 4.8125 0.25 3.203125 -0.390625 2.078125 -1.671875 C 0.953125 -2.960938 0.390625 -4.664062 0.390625 -6.78125 C 0.390625 -8.570312 0.722656 -10.238281 1.390625 -11.78125 C 2.054688 -13.320312 3.070312 -14.59375 4.4375 -15.59375 C 5.800781 -16.59375 7.394531 -17.09375 9.21875 -17.09375 C 11.351562 -17.09375 12.992188 -16.460938 14.140625 -15.203125 C 15.296875 -13.941406 15.875 -12.238281 15.875 -10.09375 Z M 12.625 -9.984375 C 12.625 -11.390625 12.335938 -12.5625 11.765625 -13.5 C 11.203125 -14.4375 10.269531 -14.90625 8.96875 -14.90625 C 8.195312 -14.90625 7.5 -14.726562 6.875 -14.375 C 6.25 -14.019531 5.738281 -13.5625 5.34375 -13 C 4.957031 -12.445312 4.628906 -11.804688 4.359375 -11.078125 C 4.085938 -10.359375 3.894531 -9.644531 3.78125 -8.9375 C 3.664062 -8.238281 3.609375 -7.546875 3.609375 -6.859375 C 3.609375 -5.460938 3.890625 -4.289062 4.453125 -3.34375 C 5.023438 -2.40625 5.960938 -1.9375 7.265625 -1.9375 C 8.210938 -1.9375 9.050781 -2.195312 9.78125 -2.71875 C 10.507812 -3.238281 11.066406 -3.914062 11.453125 -4.75 C 11.847656 -5.582031 12.140625 -6.441406 12.328125 -7.328125 C 12.523438 -8.222656 12.625 -9.109375 12.625 -9.984375 Z M 12.625 -9.984375" transform="translate(920.24 563.033)"/></g></g></g><g><g><g><path d="M 11.703125 -15.734375 L 10.34375 -13.609375 C 10.007812 -13.984375 9.507812 -14.289062 8.84375 -14.53125 C 8.1875 -14.78125 7.59375 -14.90625 7.0625 -14.90625 C 6.375 -14.90625 5.78125 -14.703125 5.28125 -14.296875 C 4.789062 -13.890625 4.546875 -13.34375 4.546875 -12.65625 C 4.546875 -12.207031 4.695312 -11.796875 5 -11.421875 C 5.300781 -11.046875 5.671875 -10.738281 6.109375 -10.5 C 6.554688 -10.257812 7.039062 -9.976562 7.5625 -9.65625 C 8.082031 -9.332031 8.566406 -9.007812 9.015625 -8.6875 C 9.460938 -8.375 9.832031 -7.941406 10.125 -7.390625 C 10.425781 -6.835938 10.578125 -6.210938 10.578125 -5.515625 C 10.578125 -3.785156 9.957031 -2.382812 8.71875 -1.3125 C 7.488281 -0.25 5.984375 0.28125 4.203125 0.28125 C 2.210938 0.28125 0.535156 -0.1875 -0.828125 -1.125 L 0.625 -3.609375 C 1.632812 -2.492188 2.835938 -1.9375 4.234375 -1.9375 C 5.054688 -1.9375 5.769531 -2.191406 6.375 -2.703125 C 6.988281 -3.210938 7.296875 -3.875 7.296875 -4.6875 C 7.296875 -5.238281 7.085938 -5.726562 6.671875 -6.15625 C 6.253906 -6.59375 5.75 -6.972656 5.15625 -7.296875 C 4.570312 -7.617188 3.976562 -7.953125 3.375 -8.296875 C 2.78125 -8.648438 2.273438 -9.125 1.859375 -9.71875 C 1.441406 -10.320312 1.234375 -11.023438 1.234375 -11.828125 C 1.234375 -13.585938 1.84375 -14.90625 3.0625 -15.78125 C 4.289062 -16.664062 5.820312 -17.109375 7.65625 -17.109375 C 8.289062 -17.109375 9.015625 -16.972656 9.828125 -16.703125 C 10.648438 -16.441406 11.273438 -16.117188 11.703125 -15.734375 Z M 11.703125 -15.734375" transform="translate(936.956 563.033)"/></g></g></g><g><g><g><path d="M 15.25 -16.84375 L 13 0 L 9.953125 0 L 10.96875 -7.515625 L 4.25 -7.515625 L 3.265625 0 L 0.25 0 L 2.328125 -15.4375 L 2.1875 -16.84375 L 5.5 -16.84375 L 4.546875 -9.796875 L 11.265625 -9.796875 L 12.21875 -16.84375 Z M 15.25 -16.84375" transform="translate(948.797 563.033)"/></g></g></g><g><g><g><path d="M 15.875 -10.09375 C 15.875 -8.757812 15.671875 -7.472656 15.265625 -6.234375 C 14.859375 -5.003906 14.285156 -3.90625 13.546875 -2.9375 C 12.804688 -1.976562 11.859375 -1.207031 10.703125 -0.625 C 9.546875 -0.0390625 8.28125 0.25 6.90625 0.25 C 4.8125 0.25 3.203125 -0.390625 2.078125 -1.671875 C 0.953125 -2.960938 0.390625 -4.664062 0.390625 -6.78125 C 0.390625 -8.570312 0.722656 -10.238281 1.390625 -11.78125 C 2.054688 -13.320312 3.070312 -14.59375 4.4375 -15.59375 C 5.800781 -16.59375 7.394531 -17.09375 9.21875 -17.09375 C 11.351562 -17.09375 12.992188 -16.460938 14.140625 -15.203125 C 15.296875 -13.941406 15.875 -12.238281 15.875 -10.09375 Z M 12.625 -9.984375 C 12.625 -11.390625 12.335938 -12.5625 11.765625 -13.5 C 11.203125 -14.4375 10.269531 -14.90625 8.96875 -14.90625 C 8.195312 -14.90625 7.5 -14.726562 6.875 -14.375 C 6.25 -14.019531 5.738281 -13.5625 5.34375 -13 C 4.957031 -12.445312 4.628906 -11.804688 4.359375 -11.078125 C 4.085938 -10.359375 3.894531 -9.644531 3.78125 -8.9375 C 3.664062 -8.238281 3.609375 -7.546875 3.609375 -6.859375 C 3.609375 -5.460938 3.890625 -4.289062 4.453125 -3.34375 C 5.023438 -2.40625 5.960938 -1.9375 7.265625 -1.9375 C 8.210938 -1.9375 9.050781 -2.195312 9.78125 -2.71875 C 10.507812 -3.238281 11.066406 -3.914062 11.453125 -4.75 C 11.847656 -5.582031 12.140625 -6.441406 12.328125 -7.328125 C 12.523438 -8.222656 12.625 -9.109375 12.625 -9.984375 Z M 12.625 -9.984375" transform="translate(964.754 563.033)"/></g></g></g><g><g><g><path d="M 12.4375 -12.4375 C 12.4375 -10.601562 11.832031 -9.195312 10.625 -8.21875 C 9.414062 -7.25 7.851562 -6.765625 5.9375 -6.765625 L 4.15625 -6.765625 L 3.265625 0 L 0.25 0 L 2.328125 -15.4375 L 2.1875 -16.84375 L 7.265625 -16.84375 C 8.765625 -16.84375 10 -16.476562 10.96875 -15.75 C 11.945312 -15.03125 12.4375 -13.925781 12.4375 -12.4375 Z M 9.25 -12.375 C 9.25 -13.082031 9.0625 -13.625 8.6875 -14 C 8.320312 -14.375 7.785156 -14.5625 7.078125 -14.5625 L 5.21875 -14.5625 L 4.484375 -9 L 6.328125 -9 C 7.234375 -9 7.945312 -9.332031 8.46875 -10 C 8.988281 -10.664062 9.25 -11.457031 9.25 -12.375 Z M 9.25 -12.375" transform="translate(981.47 563.033)"/></g></g></g><g><g><g><path d="M 7.546875 0 L 0.25 0 L 0.546875 -2.28125 L 2.921875 -2.28125 L 3.75 -8.6875 L 1.3125 -8.03125 L 1.03125 -9.5 L 5.0625 -11.453125 L 6.765625 -11.453125 L 5.5625 -2.28125 L 7.84375 -2.28125 Z M 7.546875 0" transform="translate(1299.987 589.933)"/></g></g></g><g><g><g><path d="M 12.390625 -6.921875 C 12.390625 -5.953125 12.265625 -5.050781 12.015625 -4.21875 C 11.773438 -3.382812 11.398438 -2.617188 10.890625 -1.921875 C 10.390625 -1.234375 9.707031 -0.691406 8.84375 -0.296875 C 7.976562 0.0859375 6.976562 0.28125 5.84375 0.28125 C 4.257812 0.28125 3.035156 -0.140625 2.171875 -0.984375 C 1.304688 -1.828125 0.875 -3.007812 0.875 -4.53125 C 0.875 -6.78125 1.46875 -8.539062 2.65625 -9.8125 C 3.84375 -11.09375 5.429688 -11.734375 7.421875 -11.734375 C 9.035156 -11.734375 10.265625 -11.3125 11.109375 -10.46875 C 11.960938 -9.632812 12.390625 -8.453125 12.390625 -6.921875 Z M 6.09375 -1.59375 C 6.738281 -1.59375 7.296875 -1.753906 7.765625 -2.078125 C 8.242188 -2.410156 8.601562 -2.851562 8.84375 -3.40625 C 9.09375 -3.96875 9.269531 -4.539062 9.375 -5.125 C 9.488281 -5.707031 9.546875 -6.320312 9.546875 -6.96875 C 9.546875 -8.894531 8.753906 -9.859375 7.171875 -9.859375 C 6.515625 -9.859375 5.941406 -9.679688 5.453125 -9.328125 C 4.972656 -8.984375 4.613281 -8.519531 4.375 -7.9375 C 4.144531 -7.351562 3.972656 -6.765625 3.859375 -6.171875 C 3.753906 -5.585938 3.703125 -4.976562 3.703125 -4.34375 C 3.703125 -2.507812 4.5 -1.59375 6.09375 -1.59375 Z M 6.09375 -1.59375" transform="translate(1309.253 589.933)"/></g></g></g><g><g><g><path d="M 12.390625 -6.921875 C 12.390625 -5.953125 12.265625 -5.050781 12.015625 -4.21875 C 11.773438 -3.382812 11.398438 -2.617188 10.890625 -1.921875 C 10.390625 -1.234375 9.707031 -0.691406 8.84375 -0.296875 C 7.976562 0.0859375 6.976562 0.28125 5.84375 0.28125 C 4.257812 0.28125 3.035156 -0.140625 2.171875 -0.984375 C 1.304688 -1.828125 0.875 -3.007812 0.875 -4.53125 C 0.875 -6.78125 1.46875 -8.539062 2.65625 -9.8125 C 3.84375 -11.09375 5.429688 -11.734375 7.421875 -11.734375 C 9.035156 -11.734375 10.265625 -11.3125 11.109375 -10.46875 C 11.960938 -9.632812 12.390625 -8.453125 12.390625 -6.921875 Z M 6.09375 -1.59375 C 6.738281 -1.59375 7.296875 -1.753906 7.765625 -2.078125 C 8.242188 -2.410156 8.601562 -2.851562 8.84375 -3.40625 C 9.09375 -3.96875 9.269531 -4.539062 9.375 -5.125 C 9.488281 -5.707031 9.546875 -6.320312 9.546875 -6.96875 C 9.546875 -8.894531 8.753906 -9.859375 7.171875 -9.859375 C 6.515625 -9.859375 5.941406 -9.679688 5.453125 -9.328125 C 4.972656 -8.984375 4.613281 -8.519531 4.375 -7.9375 C 4.144531 -7.351562 3.972656 -6.765625 3.859375 -6.171875 C 3.753906 -5.585938 3.703125 -4.976562 3.703125 -4.34375 C 3.703125 -2.507812 4.5 -1.59375 6.09375 -1.59375 Z M 6.09375 -1.59375" transform="translate(1323.003 589.933)"/></g></g></g><g><g><g><path d="M 17.578125 -5.640625 C 17.578125 -4.097656 17.179688 -2.753906 16.390625 -1.609375 C 15.597656 -0.472656 14.472656 0.09375 13.015625 0.09375 C 11.910156 0.09375 11.082031 -0.242188 10.53125 -0.921875 C 9.976562 -1.597656 9.703125 -2.492188 9.703125 -3.609375 C 9.703125 -5.140625 10.097656 -6.472656 10.890625 -7.609375 C 11.679688 -8.742188 12.804688 -9.3125 14.265625 -9.3125 C 15.367188 -9.3125 16.195312 -8.976562 16.75 -8.3125 C 17.300781 -7.644531 17.578125 -6.753906 17.578125 -5.640625 Z M 14.671875 -16.078125 L 4.921875 0.28125 L 3.375 0.28125 L 12.421875 -14.828125 L 8.125 -14.828125 C 8.425781 -14.265625 8.578125 -13.566406 8.578125 -12.734375 C 8.578125 -11.203125 8.179688 -9.859375 7.390625 -8.703125 C 6.597656 -7.554688 5.46875 -6.984375 4 -6.984375 C 2.914062 -6.984375 2.09375 -7.320312 1.53125 -8 C 0.96875 -8.675781 0.6875 -9.570312 0.6875 -10.6875 C 0.6875 -12.226562 1.082031 -13.566406 1.875 -14.703125 C 2.664062 -15.835938 3.796875 -16.40625 5.265625 -16.40625 C 5.878906 -16.40625 6.410156 -16.296875 6.859375 -16.078125 Z M 15.203125 -5.6875 C 15.203125 -6.894531 14.8125 -7.5 14.03125 -7.5 C 13.644531 -7.5 13.316406 -7.351562 13.046875 -7.0625 C 12.785156 -6.769531 12.582031 -6.398438 12.4375 -5.953125 C 12.300781 -5.515625 12.207031 -5.09375 12.15625 -4.6875 C 12.101562 -4.289062 12.078125 -3.914062 12.078125 -3.5625 C 12.078125 -2.332031 12.46875 -1.71875 13.25 -1.71875 C 13.632812 -1.71875 13.957031 -1.863281 14.21875 -2.15625 C 14.488281 -2.445312 14.691406 -2.816406 14.828125 -3.265625 C 14.972656 -3.710938 15.070312 -4.140625 15.125 -4.546875 C 15.175781 -4.953125 15.203125 -5.332031 15.203125 -5.6875 Z M 6.203125 -12.765625 C 6.203125 -13.972656 5.804688 -14.578125 5.015625 -14.578125 C 4.628906 -14.578125 4.300781 -14.4375 4.03125 -14.15625 C 3.769531 -13.875 3.570312 -13.503906 3.4375 -13.046875 C 3.3125 -12.597656 3.21875 -12.171875 3.15625 -11.765625 C 3.101562 -11.367188 3.078125 -11 3.078125 -10.65625 C 3.078125 -9.425781 3.46875 -8.8125 4.25 -8.8125 C 4.632812 -8.8125 4.960938 -8.957031 5.234375 -9.25 C 5.503906 -9.539062 5.707031 -9.90625 5.84375 -10.34375 C 5.976562 -10.789062 6.070312 -11.21875 6.125 -11.625 C 6.175781 -12.03125 6.203125 -12.410156 6.203125 -12.765625 Z M 6.203125 -12.765625" transform="translate(1336.752 589.933)"/></g></g></g></svg>