<svg xmlns="http://www.w3.org/2000/svg" width="1440" viewBox="0 0 1440 810" height="810" version="1.0"><defs><clipPath id="a"><path d="M 169.359375 410.046875 L 245.109375 410.046875 L 245.109375 485.796875 L 169.359375 485.796875 Z M 169.359375 410.046875"/></clipPath><clipPath id="b"><path d="M 425.695312 410.046875 L 502.195312 410.046875 L 502.195312 485.796875 L 425.695312 485.796875 Z M 425.695312 410.046875"/></clipPath><clipPath id="c"><path d="M 682.117188 410.046875 L 757.867188 410.046875 L 757.867188 485.796875 L 682.117188 485.796875 Z M 682.117188 410.046875"/></clipPath><clipPath id="d"><path d="M 302.296875 410.046875 L 378.046875 410.046875 L 378.046875 485.796875 L 302.296875 485.796875 Z M 302.296875 410.046875"/></clipPath><clipPath id="e"><path d="M 553.453125 410.046875 L 629.203125 410.046875 L 629.203125 485.796875 L 553.453125 485.796875 Z M 553.453125 410.046875"/></clipPath></defs><g clip-path="url(#a)"><path fill="#010101" d="M 207.21875 416.875 C 217.324219 416.875 218.519531 416.910156 222.519531 417.09375 C 226.207031 417.257812 228.214844 417.871094 229.558594 418.402344 C 231.316406 419.085938 232.578125 419.914062 233.90625 421.242188 C 235.234375 422.570312 236.046875 423.832031 236.746094 425.589844 C 237.257812 426.917969 237.875 428.925781 238.054688 432.628906 C 238.238281 436.628906 238.273438 437.824219 238.273438 447.929688 C 238.273438 458.039062 238.238281 459.234375 238.054688 463.234375 C 237.890625 466.917969 237.277344 468.925781 236.746094 470.269531 C 236.0625 472.03125 235.234375 473.292969 233.90625 474.617188 C 232.578125 475.945312 231.316406 476.761719 229.558594 477.457031 C 228.230469 477.972656 226.222656 478.585938 222.519531 478.769531 C 218.519531 478.949219 217.324219 478.984375 207.21875 478.984375 C 197.109375 478.984375 195.914062 478.949219 191.914062 478.769531 C 188.230469 478.601562 186.222656 477.988281 184.878906 477.457031 C 183.117188 476.777344 181.859375 475.945312 180.53125 474.617188 C 179.203125 473.292969 178.390625 472.03125 177.691406 470.269531 C 177.175781 468.941406 176.5625 466.933594 176.378906 463.234375 C 176.199219 459.234375 176.164062 458.039062 176.164062 447.929688 C 176.164062 437.824219 176.199219 436.628906 176.378906 432.628906 C 176.546875 428.941406 177.160156 426.933594 177.691406 425.589844 C 178.371094 423.832031 179.203125 422.570312 180.53125 421.242188 C 181.859375 419.914062 183.117188 419.101562 184.878906 418.402344 C 186.207031 417.890625 188.214844 417.273438 191.914062 417.09375 C 195.914062 416.910156 197.109375 416.875 207.21875 416.875 M 207.21875 410.054688 C 196.929688 410.054688 195.648438 410.105469 191.601562 410.289062 C 187.566406 410.46875 184.8125 411.117188 182.40625 412.046875 C 179.914062 413.007812 177.808594 414.304688 175.699219 416.414062 C 173.609375 418.519531 172.3125 420.628906 171.351562 423.117188 C 170.421875 425.523438 169.773438 428.277344 169.59375 432.3125 C 169.410156 436.34375 169.359375 437.640625 169.359375 447.914062 C 169.359375 458.203125 169.410156 459.480469 169.59375 463.53125 C 169.773438 467.566406 170.421875 470.320312 171.351562 472.726562 C 172.3125 475.214844 173.609375 477.324219 175.714844 479.433594 C 177.824219 481.539062 179.933594 482.835938 182.421875 483.796875 C 184.828125 484.726562 187.582031 485.375 191.617188 485.554688 C 195.648438 485.738281 196.945312 485.789062 207.234375 485.789062 C 217.523438 485.789062 218.804688 485.738281 222.851562 485.554688 C 226.886719 485.375 229.640625 484.726562 232.046875 483.796875 C 234.539062 482.835938 236.644531 481.539062 238.753906 479.433594 C 240.859375 477.324219 242.15625 475.214844 243.117188 472.726562 C 244.046875 470.320312 244.695312 467.566406 244.878906 463.53125 C 245.058594 459.5 245.109375 458.203125 245.109375 447.914062 C 245.109375 437.625 245.058594 436.34375 244.878906 432.296875 C 244.695312 428.261719 244.046875 425.507812 243.117188 423.101562 C 242.15625 420.609375 240.859375 418.503906 238.753906 416.394531 C 236.644531 414.289062 234.539062 412.992188 232.046875 412.03125 C 229.640625 411.101562 226.886719 410.453125 222.851562 410.269531 C 218.804688 410.105469 217.507812 410.054688 207.21875 410.054688"/></g><path fill="#010101" d="M 207.21875 428.476562 C 196.480469 428.476562 187.78125 437.175781 187.78125 447.914062 C 187.78125 458.652344 196.496094 467.367188 207.234375 467.367188 C 217.972656 467.367188 226.6875 458.667969 226.6875 447.914062 C 226.671875 437.175781 217.957031 428.476562 207.21875 428.476562 M 207.21875 460.542969 C 200.246094 460.542969 194.605469 454.902344 194.605469 447.929688 C 194.605469 440.960938 200.246094 435.316406 207.21875 435.316406 C 214.1875 435.316406 219.832031 440.960938 219.832031 447.929688 C 219.847656 454.882812 214.1875 460.542969 207.21875 460.542969"/><path fill="#010101" d="M 231.980469 427.714844 C 231.980469 430.222656 229.941406 432.261719 227.433594 432.261719 C 224.925781 432.261719 222.886719 430.222656 222.886719 427.714844 C 222.886719 425.207031 224.925781 423.167969 227.433594 423.167969 C 229.941406 423.167969 231.980469 425.191406 231.980469 427.714844"/><g clip-path="url(#b)"><path fill="#010101" d="M 502.183594 448.152344 C 502.183594 427.109375 485.066406 410.046875 463.945312 410.046875 C 442.824219 410.046875 425.703125 427.109375 425.703125 448.152344 C 425.703125 467.171875 439.6875 482.9375 457.96875 485.796875 L 457.96875 459.167969 L 448.261719 459.167969 L 448.261719 448.152344 L 457.96875 448.152344 L 457.96875 439.757812 C 457.96875 430.207031 463.679688 424.933594 472.414062 424.933594 C 476.597656 424.933594 480.972656 425.675781 480.972656 425.675781 L 480.972656 435.054688 L 476.152344 435.054688 C 471.402344 435.054688 469.921875 437.992188 469.921875 441.003906 L 469.921875 448.152344 L 480.527344 448.152344 L 478.832031 459.167969 L 469.921875 459.167969 L 469.921875 485.796875 C 488.203125 482.9375 502.183594 467.171875 502.183594 448.152344"/></g><g clip-path="url(#c)"><path d="M 748.398438 485.796875 L 691.585938 485.796875 C 686.359375 485.796875 682.117188 481.554688 682.117188 476.328125 L 682.117188 419.515625 C 682.117188 414.289062 686.359375 410.046875 691.585938 410.046875 L 748.398438 410.046875 C 753.625 410.046875 757.867188 414.289062 757.867188 419.515625 L 757.867188 476.328125 C 757.867188 481.554688 753.625 485.796875 748.398438 485.796875 Z M 711.203125 467.164062 C 729.0625 467.164062 738.832031 452.351562 738.832031 439.53125 C 738.832031 439.117188 738.832031 438.699219 738.816406 438.28125 C 740.707031 436.917969 742.355469 435.195312 743.664062 433.246094 C 741.921875 434.023438 740.046875 434.535156 738.074219 434.78125 C 740.082031 433.585938 741.617188 431.671875 742.355469 429.402344 C 740.480469 430.519531 738.398438 431.3125 736.183594 431.75 C 734.402344 429.855469 731.882812 428.679688 729.097656 428.679688 C 723.742188 428.679688 719.382812 433.039062 719.382812 438.398438 C 719.382812 439.152344 719.480469 439.894531 719.628906 440.613281 C 711.5625 440.214844 704.40625 436.332031 699.613281 430.460938 C 698.78125 431.902344 698.308594 433.566406 698.308594 435.347656 C 698.308594 438.71875 700.03125 441.691406 702.625 443.433594 C 701.035156 443.378906 699.539062 442.941406 698.230469 442.222656 C 698.230469 442.261719 698.230469 442.296875 698.230469 442.355469 C 698.230469 447.050781 701.582031 450.988281 706.015625 451.878906 C 705.199219 452.105469 704.347656 452.222656 703.457031 452.222656 C 702.832031 452.222656 702.226562 452.164062 701.640625 452.050781 C 702.871094 455.914062 706.46875 458.714844 710.710938 458.792969 C 707.378906 461.40625 703.191406 462.957031 698.648438 462.957031 C 697.871094 462.957031 697.09375 462.921875 696.335938 462.824219 C 700.617188 465.554688 705.730469 467.164062 711.203125 467.164062"/></g><path d="M 354.367188 446.457031 C 352.839844 445.441406 350.929688 444.546875 348.765625 443.910156 C 346.601562 443.273438 344.179688 442.640625 341.632812 442.003906 C 339.597656 441.492188 338.070312 441.109375 337.179688 440.855469 C 336.289062 440.601562 335.523438 440.347656 334.761719 439.835938 C 333.996094 439.457031 333.488281 439.074219 333.105469 438.566406 C 332.722656 438.183594 332.59375 437.671875 332.59375 437.035156 C 332.59375 436.402344 332.722656 435.382812 334.25 434.363281 C 335.523438 433.472656 337.304688 433.089844 339.46875 433.089844 C 341.761719 433.089844 343.417969 433.472656 344.433594 434.234375 C 345.453125 435 346.34375 436.144531 347.109375 437.671875 C 347.871094 438.945312 348.507812 439.835938 349.144531 440.347656 C 349.910156 440.984375 350.929688 441.367188 352.328125 441.367188 C 353.730469 441.367188 355.128906 440.855469 356.019531 439.835938 C 357.039062 438.820312 357.546875 437.546875 357.546875 436.273438 C 357.546875 435 357.167969 433.601562 356.53125 432.328125 C 355.765625 431.054688 354.746094 429.78125 353.21875 428.632812 C 351.820312 427.488281 349.910156 426.597656 347.746094 425.832031 C 345.582031 425.195312 343.035156 424.816406 340.105469 424.816406 C 336.414062 424.816406 333.230469 425.324219 330.429688 426.34375 C 327.628906 427.363281 325.464844 428.890625 323.9375 430.925781 C 322.410156 432.964844 321.648438 435.253906 321.648438 437.800781 C 321.648438 440.472656 322.410156 442.765625 323.8125 444.675781 C 325.210938 446.457031 327.121094 447.859375 329.539062 448.878906 C 331.832031 449.894531 334.632812 450.785156 338.070312 451.421875 C 340.488281 451.933594 342.398438 452.441406 343.925781 452.824219 C 345.199219 453.207031 346.34375 453.84375 347.109375 454.605469 C 347.871094 455.242188 348.128906 456.132812 348.128906 457.28125 C 348.128906 458.679688 347.492188 459.824219 345.964844 460.84375 C 344.433594 461.863281 342.398438 462.371094 339.851562 462.371094 C 338.070312 462.371094 336.542969 462.117188 335.523438 461.609375 C 334.503906 461.097656 333.613281 460.460938 333.105469 459.699219 C 332.46875 458.808594 331.832031 457.789062 331.324219 456.515625 C 330.8125 455.242188 330.050781 454.222656 329.285156 453.460938 C 328.394531 452.695312 327.375 452.3125 326.101562 452.3125 C 324.574219 452.3125 323.300781 452.824219 322.285156 453.714844 C 321.265625 454.605469 320.753906 455.878906 320.753906 457.152344 C 320.753906 459.1875 321.519531 461.226562 322.921875 463.390625 C 324.320312 465.425781 326.230469 467.082031 328.394531 468.355469 C 331.449219 470.011719 335.394531 470.902344 340.105469 470.902344 C 344.054688 470.902344 347.492188 470.265625 350.417969 469.121094 C 353.347656 467.847656 355.640625 466.0625 357.167969 463.898438 C 358.695312 461.609375 359.457031 459.0625 359.457031 456.261719 C 359.457031 453.96875 358.949219 451.933594 358.058594 450.277344 C 357.167969 448.878906 355.894531 447.476562 354.367188 446.457031 Z M 355.640625 463.007812 C 354.238281 464.917969 352.328125 466.445312 349.65625 467.589844 C 346.980469 468.738281 343.800781 469.246094 340.105469 469.246094 C 335.777344 469.246094 332.085938 468.484375 329.285156 466.957031 C 327.375 465.9375 325.722656 464.410156 324.449219 462.625 C 323.175781 460.84375 322.664062 459.1875 322.664062 457.535156 C 322.664062 456.644531 322.921875 456.007812 323.554688 455.371094 C 324.191406 454.734375 324.957031 454.480469 325.976562 454.480469 C 326.738281 454.480469 327.375 454.734375 328.011719 455.113281 C 328.648438 455.625 329.160156 456.386719 329.539062 457.40625 C 330.175781 458.808594 330.8125 460.082031 331.578125 460.972656 C 332.339844 461.988281 333.359375 462.882812 334.761719 463.519531 C 336.160156 464.152344 337.816406 464.535156 339.980469 464.535156 C 342.90625 464.535156 345.328125 463.898438 347.109375 462.625 C 349.019531 461.226562 350.039062 459.570312 350.039062 457.535156 C 350.039062 455.878906 349.527344 454.480469 348.382812 453.460938 C 347.363281 452.441406 346.089844 451.804688 344.433594 451.296875 C 342.90625 450.785156 340.871094 450.277344 338.453125 449.769531 C 335.269531 449.003906 332.46875 448.242188 330.304688 447.347656 C 328.265625 446.457031 326.484375 445.183594 325.339844 443.65625 C 324.066406 442.003906 323.554688 440.09375 323.554688 437.800781 C 323.554688 435.636719 324.191406 433.726562 325.464844 432.070312 C 326.738281 430.417969 328.648438 429.015625 331.066406 428.125 C 333.613281 427.234375 336.542969 426.726562 339.980469 426.726562 C 342.652344 426.726562 345.070312 426.980469 347.109375 427.617188 C 349.019531 428.253906 350.671875 429.015625 351.945312 430.035156 C 353.21875 431.054688 354.109375 432.070312 354.746094 433.21875 C 355.257812 434.234375 355.640625 435.382812 355.640625 436.273438 C 355.640625 437.035156 355.382812 437.800781 354.621094 438.566406 C 353.984375 439.203125 353.21875 439.582031 352.328125 439.582031 C 351.4375 439.582031 350.800781 439.457031 350.417969 439.074219 C 349.910156 438.691406 349.402344 437.929688 348.765625 436.910156 C 347.871094 435.253906 346.726562 433.855469 345.582031 432.835938 C 344.308594 431.816406 342.269531 431.308594 339.46875 431.308594 C 336.925781 431.308594 334.761719 431.816406 333.230469 432.964844 C 331.578125 434.109375 330.6875 435.507812 330.6875 437.164062 C 330.6875 438.183594 331.066406 439.074219 331.578125 439.835938 C 332.085938 440.601562 332.976562 441.109375 333.867188 441.621094 C 334.761719 442.128906 335.777344 442.511719 336.667969 442.765625 C 337.5625 443.019531 339.089844 443.402344 341.125 443.910156 C 343.671875 444.421875 345.964844 445.058594 348.128906 445.695312 C 350.164062 446.332031 351.945312 447.222656 353.347656 448.113281 C 354.746094 449.003906 355.765625 450.148438 356.53125 451.550781 C 357.292969 452.949219 357.675781 454.605469 357.675781 456.644531 C 357.546875 458.933594 356.910156 461.097656 355.640625 463.007812 Z M 355.640625 463.007812"/><g clip-path="url(#d)"><path d="M 374.988281 453.078125 C 375.246094 451.421875 375.371094 449.640625 375.371094 447.984375 C 375.371094 428.507812 359.585938 412.71875 340.105469 412.71875 C 338.453125 412.71875 336.667969 412.847656 335.015625 413.101562 C 331.703125 411.066406 327.886719 410.046875 323.9375 410.046875 C 311.972656 410.046875 302.296875 419.722656 302.296875 431.691406 C 302.296875 435.636719 303.3125 439.457031 305.351562 442.765625 C 305.097656 444.546875 304.96875 446.203125 304.96875 447.859375 C 304.96875 467.210938 320.753906 483.125 340.234375 483.125 C 342.015625 483.125 343.671875 482.996094 345.328125 482.742188 C 348.636719 484.777344 352.457031 485.796875 356.402344 485.796875 C 368.371094 485.796875 378.046875 476.121094 378.046875 464.152344 C 377.917969 460.335938 376.898438 456.515625 374.988281 453.078125 Z M 356.277344 483.886719 C 352.582031 483.886719 349.019531 482.867188 345.964844 480.960938 C 345.835938 480.832031 345.582031 480.832031 345.453125 480.832031 L 345.328125 480.832031 C 343.671875 481.085938 341.890625 481.214844 340.105469 481.214844 C 321.773438 481.339844 306.75 466.320312 306.75 447.984375 C 306.75 446.332031 306.878906 444.546875 307.132812 442.765625 C 307.132812 442.511719 307.132812 442.257812 307.007812 442.128906 C 305.097656 438.945312 304.078125 435.382812 304.078125 431.816406 C 304.078125 420.867188 312.988281 412.085938 323.8125 412.085938 C 327.503906 412.085938 331.066406 413.101562 334.125 415.011719 C 334.378906 415.140625 334.503906 415.140625 334.761719 415.140625 C 336.542969 414.886719 338.199219 414.757812 339.980469 414.757812 C 358.3125 414.757812 373.335938 429.652344 373.335938 448.113281 C 373.335938 449.894531 373.207031 451.550781 372.953125 453.332031 C 372.953125 453.585938 372.953125 453.84375 373.082031 453.96875 C 374.988281 457.023438 376.007812 460.71875 376.007812 464.28125 C 376.007812 475.101562 367.222656 483.886719 356.277344 483.886719 Z M 356.277344 483.886719"/></g><g clip-path="url(#e)"><path d="M 563.695312 410.046875 C 558.074219 410.046875 553.453125 414.667969 553.453125 420.289062 L 553.453125 475.578125 C 553.453125 481.175781 558.074219 485.796875 563.695312 485.796875 L 618.984375 485.796875 C 624.582031 485.796875 629.203125 481.175781 629.203125 475.578125 L 629.203125 420.289062 C 629.203125 414.667969 624.582031 410.046875 618.984375 410.046875 Z M 563.695312 415.875 L 618.984375 415.875 C 621.441406 415.875 623.378906 417.808594 623.378906 420.289062 L 623.378906 475.578125 C 623.378906 478.035156 621.441406 479.96875 618.984375 479.96875 L 563.695312 479.96875 C 561.214844 479.96875 559.28125 478.035156 559.28125 475.578125 L 559.28125 420.289062 C 559.28125 417.808594 561.214844 415.875 563.695312 415.875 Z M 570.933594 421.699219 C 567.726562 421.699219 565.109375 424.320312 565.109375 427.527344 C 565.109375 430.738281 567.726562 433.355469 570.933594 433.355469 C 574.144531 433.355469 576.761719 430.738281 576.761719 427.527344 C 576.761719 424.320312 574.144531 421.699219 570.933594 421.699219 Z M 565.109375 439.183594 L 565.109375 474.144531 L 576.761719 474.144531 L 576.761719 439.183594 Z M 582.589844 439.183594 L 582.589844 474.144531 L 594.242188 474.144531 L 594.242188 458.527344 C 594.242188 453.679688 594.699219 449.332031 600.523438 449.332031 C 606.261719 449.332031 605.898438 454.546875 605.898438 458.847656 L 605.898438 474.144531 L 617.550781 474.144531 L 617.550781 456.890625 C 617.550781 446.875 615.457031 439.183594 604.097656 439.183594 C 598.636719 439.183594 595.882812 441.367188 594.378906 444.28125 L 594.242188 444.28125 L 594.242188 439.183594 Z M 582.589844 439.183594"/></g><g><g><g><path d="M 3.390625 0 L 3.390625 -28.6875 L 21.46875 -28.6875 L 21.46875 -23.234375 L 9.859375 -23.234375 L 9.859375 -16.59375 L 19.796875 -16.59375 L 19.796875 -11.125 L 9.859375 -11.125 L 9.859375 0 Z M 3.390625 0" transform="translate(169.36 348.723)"/></g></g></g><g><g><g><path d="M 3.390625 0 L 3.390625 -28.6875 L 9.859375 -28.6875 L 9.859375 0 Z M 3.390625 0" transform="translate(195.93 348.723)"/></g></g></g><g><g><g><path d="M 3.390625 0 L 3.390625 -28.6875 L 10.03125 -28.6875 L 17.515625 -14.4375 L 20.328125 -8.09375 L 20.5 -8.09375 C 20.351562 -9.625 20.1875 -11.328125 20 -13.203125 C 19.8125 -15.078125 19.71875 -16.863281 19.71875 -18.5625 L 19.71875 -28.6875 L 25.875 -28.6875 L 25.875 0 L 19.234375 0 L 11.75 -14.296875 L 8.9375 -20.546875 L 8.75 -20.546875 C 8.894531 -18.960938 9.0625 -17.257812 9.25 -15.4375 C 9.445312 -13.625 9.546875 -11.863281 9.546875 -10.15625 L 9.546875 0 Z M 3.390625 0" transform="translate(212.69 348.723)"/></g></g></g><g><g><g><path d="M 3.390625 0 L 3.390625 -28.6875 L 11.484375 -28.6875 C 13.679688 -28.6875 15.660156 -28.40625 17.421875 -27.84375 C 19.179688 -27.289062 20.691406 -26.4375 21.953125 -25.28125 C 23.210938 -24.125 24.179688 -22.648438 24.859375 -20.859375 C 25.535156 -19.066406 25.875 -16.9375 25.875 -14.46875 C 25.875 -12.007812 25.535156 -9.867188 24.859375 -8.046875 C 24.179688 -6.234375 23.226562 -4.734375 22 -3.546875 C 20.769531 -2.359375 19.296875 -1.46875 17.578125 -0.875 C 15.859375 -0.289062 13.945312 0 11.84375 0 Z M 9.859375 -5.234375 L 11.09375 -5.234375 C 12.320312 -5.234375 13.429688 -5.394531 14.421875 -5.71875 C 15.421875 -6.039062 16.273438 -6.5625 16.984375 -7.28125 C 17.691406 -8 18.242188 -8.941406 18.640625 -10.109375 C 19.035156 -11.285156 19.234375 -12.738281 19.234375 -14.46875 C 19.234375 -16.175781 19.035156 -17.609375 18.640625 -18.765625 C 18.242188 -19.921875 17.691406 -20.84375 16.984375 -21.53125 C 16.273438 -22.226562 15.421875 -22.722656 14.421875 -23.015625 C 13.429688 -23.304688 12.320312 -23.453125 11.09375 -23.453125 L 9.859375 -23.453125 Z M 9.859375 -5.234375" transform="translate(245.461 348.723)"/></g></g></g><g><g><g><path d="M 3.390625 0 L 3.390625 -28.6875 L 10.46875 -28.6875 L 15.09375 -15.921875 C 15.382812 -15.078125 15.660156 -14.207031 15.921875 -13.3125 C 16.191406 -12.414062 16.472656 -11.523438 16.765625 -10.640625 L 16.9375 -10.640625 C 17.226562 -11.523438 17.5 -12.414062 17.75 -13.3125 C 18 -14.207031 18.269531 -15.078125 18.5625 -15.921875 L 23.09375 -28.6875 L 30.140625 -28.6875 L 30.140625 0 L 24.25 0 L 24.25 -10.515625 C 24.25 -11.222656 24.273438 -12 24.328125 -12.84375 C 24.390625 -13.695312 24.460938 -14.554688 24.546875 -15.421875 C 24.640625 -16.285156 24.726562 -17.132812 24.8125 -17.96875 C 24.90625 -18.8125 24.992188 -19.582031 25.078125 -20.28125 L 24.90625 -20.28125 L 22.578125 -13.46875 L 18.484375 -2.515625 L 14.921875 -2.515625 L 10.828125 -13.46875 L 8.53125 -20.28125 L 8.359375 -20.28125 C 8.441406 -19.582031 8.523438 -18.8125 8.609375 -17.96875 C 8.703125 -17.132812 8.789062 -16.285156 8.875 -15.421875 C 8.96875 -14.554688 9.046875 -13.695312 9.109375 -12.84375 C 9.171875 -12 9.203125 -11.222656 9.203125 -10.515625 L 9.203125 0 Z M 3.390625 0" transform="translate(289.23 348.723)"/></g></g></g><g><g><g><path d="M 3.390625 0 L 3.390625 -28.6875 L 21.34375 -28.6875 L 21.34375 -23.234375 L 9.859375 -23.234375 L 9.859375 -17.46875 L 19.625 -17.46875 L 19.625 -12.0625 L 9.859375 -12.0625 L 9.859375 -5.453125 L 21.78125 -5.453125 L 21.78125 0 Z M 3.390625 0" transform="translate(326.27 348.723)"/></g></g></g></svg>